<?xml version="1.0" standalone="no"?>
<!DOCTYPE svg PUBLIC "-//W3C//DTD SVG 1.1//EN" "http://www.w3.org/Graphics/SVG/1.1/DTD/svg11.dtd" >
<svg xmlns="http://www.w3.org/2000/svg">
<metadata>Generated by IcoMoon</metadata>
<defs>
<font id="icomoon" horiz-adv-x="1024">
<font-face units-per-em="1024" ascent="960" descent="-64" />
<missing-glyph horiz-adv-x="1024" />
<glyph unicode="&#x20;" horiz-adv-x="512" d="" />
<glyph unicode="&#xe900;" glyph-name="no-icon" d="M0 960v-1024h1024v1024h-1024zM989.867-29.867h-955.733v955.733h955.733v-955.733zM273.22 185.088l241.357 241.357 241.357-241.357 24.132 24.132-241.357 241.357 241.357 241.357-24.132 24.132-241.357-241.357-241.357 241.357-24.132-24.132 241.357-241.357-241.357-241.357z" />
<glyph unicode="&#xe901;" glyph-name="actuator" horiz-adv-x="717" d="M204.914 550.343c0.96-6.112 1.508-13.16 1.508-20.336 0-9.614-0.984-18.999-2.857-28.059l0.154 0.892c-5.291-13.483-20.935-22.756-31.346-34.133-42.758-45.546-69.024-107.012-69.024-174.613 0-129.291 96.081-236.141 220.736-253.045l1.32-0.146c10.046-1.4 21.653-2.199 33.447-2.199 141.102 0 255.488 114.386 255.488 255.488 0 6.82-0.267 13.578-0.792 20.263l0.056-0.884c-5.293 71.572-39.94 134.134-91.815 176.335l-0.459 0.362c-5.721 4.185-9.395 10.873-9.395 18.42 0 0.605 0.024 1.204 0.070 1.797l-0.005-0.078c0.569 27.989 0 55.979 0 83.968 0 14.734 8.59 19.684 21.39 12.402 110.083-62.583 183.125-179.070 183.125-312.617 0-197.939-160.461-358.4-358.4-358.4s-358.4 160.461-358.4 358.4c0 133.547 73.043 250.034 181.357 311.69l1.768 0.927c13.596 7.623 21.845 2.844 21.902-12.857 0.228-14.734 0.171-29.184 0.171-43.577zM335.758 958.236c-74.274-11.656-130.417-75.192-130.417-151.84 0-62.574 37.417-116.409 91.098-140.35l0.976-0.389c6.083-1.883 10.425-7.459 10.425-14.048 0-0.683-0.047-1.356-0.137-2.014l0.009 0.076q-0.455-127.772 0-255.602c0.035-0.421 0.055-0.91 0.055-1.405 0-6.423-3.379-12.056-8.456-15.22l-0.076-0.044c-26.154-17.981-43.085-47.738-43.085-81.45 0-1.366 0.028-2.725 0.083-4.077l-0.006 0.194c0.967-55.81 46.436-100.681 102.386-100.681 56.554 0 102.4 45.846 102.4 102.4 0 33.951-16.523 64.043-41.966 82.674l-0.288 0.201c-5.684 3.625-9.4 9.897-9.4 17.037 0 0.591 0.025 1.177 0.075 1.755l-0.005-0.075c0 83.968 0.398 167.993 0 251.961-0.094 0.683-0.147 1.473-0.147 2.275 0 8.009 5.339 14.771 12.652 16.922l0.125 0.031c53.419 24.825 89.792 78.024 89.792 139.72 0 84.699-68.555 153.385-153.203 153.599h-0.020c-7.737-0.455-15.417-0.398-22.869-1.593z" />
<glyph unicode="&#xe902;" glyph-name="alerts" horiz-adv-x="859" d="M402.905 940.308h51.909c12.288-1.969 24.576-3.702 36.825-5.868 146.153-29.048 256.199-152.099 265.095-302.364l0.042-0.898c1.378-35.84 1.063-71.759 0.709-107.638-0.059-3.512-0.093-7.656-0.093-11.807 0-120.075 28.338-233.532 78.692-334.047l-1.956 4.311c2.528-4.709 4.391-10.184 5.281-15.98l0.036-0.286c0.244-1.674 0.384-3.606 0.384-5.571 0-22.448-18.197-40.645-40.645-40.645-1.328 0-2.64 0.064-3.936 0.188l0.165-0.013h-223.232c0.197-4.411 0.236-7.522 0.512-10.634 0.42-4.113 0.659-8.887 0.659-13.718 0-61.335-38.613-113.651-92.857-133.966l-0.987-0.324c-4.411-1.615-8.743-3.505-13.115-5.238h-73.058c-2.245 1.024-4.45 2.206-6.774 3.033-54.646 16.979-94.507 64.961-99.255 122.888l-0.033 0.504c-0.413 6.105-0.649 13.232-0.649 20.415 0 5.994 0.164 11.949 0.488 17.862l-0.036-0.823h-223.508c-0.901-0.071-1.951-0.111-3.010-0.111-18.9 0-34.802 12.838-39.46 30.27l-0.065 0.285c-0.731 3.163-1.15 6.796-1.15 10.526 0 8.733 2.296 16.93 6.317 24.020l-0.126-0.242c40.174 78.436 66.405 170.247 72.867 267.467l0.113 2.121c2.836 46.631 0.827 93.499 2.796 140.209 0.218 29.765 3.607 58.622 9.845 86.4l-0.511-2.708c26.484 125.142 121.206 222.772 242.585 253.078l2.27 0.48c15.242 4.175 31.193 5.947 46.868 8.822zM735.508 202.043l-4.687 12.564c-28.929 71.519-47.878 154.32-52.724 240.888l-0.091 2.036c-2.166 44.465-1.142 89.049-2.166 133.593 0.001 0.415 0.002 0.907 0.002 1.398 0 21.723-1.432 43.112-4.207 64.077l0.266-2.46c-20.657 116.494-121.142 203.823-242.023 203.823-18.147 0-35.835-1.968-52.861-5.703l1.626 0.299c-99.633-24.414-175.050-105.669-190.523-206.665l-0.177-1.403c-2.866-23.569-4.501-50.857-4.501-78.527 0-9.781 0.204-19.514 0.609-29.196l-0.046 1.384c0.177-6.478 0.278-14.103 0.278-21.753 0-111.219-21.357-217.449-60.193-314.815l2.019 5.736c-0.483-1.502-0.909-3.323-1.195-5.19l-0.026-0.206zM430.238 119.572c-16.975 0-33.95-0.236-50.885 0-5.908 0-8.31-1.812-9.61-7.877-0.904-3.954-1.422-8.494-1.422-13.155 0-33.998 27.561-61.558 61.558-61.558 12.962 0 24.989 4.006 34.909 10.848l-0.207-0.135c16.203 11.141 26.691 29.576 26.691 50.461 0 4.743-0.541 9.36-1.565 13.792l0.080-0.411c-1.3 5.671-3.505 7.877-9.57 7.877-16.699-0.039-33.359 0.197-50.018 0.197z" />
<glyph unicode="&#xe903;" glyph-name="billing-address" horiz-adv-x="806" d="M3.712 311.040v104.256h83.904v73.6h-87.616v106.688c29.568 0 58.688 0.832 87.744-0.384 14.208-0.576 19.968 3.776 24.128 17.664 37.484 140.474 136.563 252.268 265.786 306.4l3.014 1.12c60.874 24.959 131.527 39.447 205.563 39.447 77.078 0 150.488-15.703 217.205-44.084l-3.633 1.373c2.116-1.135 3.939-2.366 5.625-3.758l-0.057 0.046-43.584-169.92c-22.912 7.040-44.224 14.784-66.048 20.096-28.743 8.914-61.787 14.049-96.030 14.049-36.081 0-70.831-5.7-103.397-16.249l2.372 0.664c-71.444-23.991-125.607-81.748-144.116-153.806l-0.332-1.522c-0.442-1.458-0.802-3.193-1.010-4.975l-0.014-0.145c0.113-2.063 0.387-3.993 0.812-5.865l-0.044 0.233h384v-105.536c-7.040-0.448-14.336-1.344-21.632-1.344-122.368 0-244.736-0.384-367.104 0-16.256 0-22.272-4.544-20.544-20.736 0.522-4.732 0.819-10.219 0.819-15.776s-0.298-11.044-0.878-16.446l0.058 0.67c-1.728-16.576 3.904-22.016 21.248-21.888 122.368 0.768 244.736 0.384 367.104 0.32 6.848 0 13.76-0.576 21.184-0.896v-105.088h-389.632c1.024-7.296 1.28-12.288 2.432-17.088 19.719-87.034 91.367-152.824 179.984-163.549l1.008-0.099c20.2-3.69 43.446-5.8 67.185-5.8 57.682 0 112.454 12.459 161.773 34.832l-2.462-1 11.84 5.12 35.456-167.36c-35.888-20.923-77.63-36.806-121.996-45.3l-2.484-0.396c-35.28-8.809-75.78-13.863-117.462-13.863-99.024 0-191.385 28.525-269.315 77.807l2.073-1.224c-99.282 62.003-169.766 162.218-191.104 279.567l-0.384 2.545c-2.56 12.8-7.552 15.936-19.2 15.616-25.6-0.704-51.2 0-77.248 0-1.893 0.477-3.555 1.157-5.089 2.035l0.097-0.051z" />
<glyph unicode="&#xe904;" glyph-name="boiler" horiz-adv-x="464" d="M169.984 691.712v62.919c0 20.423 5.689 25.202 24.804 25.202h74.468c16.156 0 22.3-6.144 22.414-22.13v-65.934h120.32c1.106 0.090 2.394 0.142 3.694 0.142 26.612 0 48.185-21.573 48.185-48.185 0-1.412-0.061-2.809-0.18-4.19l0.012 0.18v-466.489c0.108-1.202 0.169-2.6 0.169-4.013 0-26.36-21.369-47.73-47.73-47.73-1.542 0-3.066 0.073-4.571 0.216l0.192-0.015h-360.505c-1.248-0.117-2.7-0.184-4.166-0.184-26.078 0-47.218 21.14-47.218 47.218 0 1.467 0.067 2.918 0.198 4.351l-0.014-0.184v466.489c-0.16 1.471-0.251 3.176-0.251 4.903 0 26.518 21.497 48.014 48.014 48.014 1.872 0 3.719-0.107 5.536-0.316l-0.222 0.021c38.4-0.228 76.857-0.284 116.85-0.284zM99.84 479.289v-95.972c0-24.405 10.126-35.157 34.133-35.214h198.428c0.855-0.095 1.847-0.149 2.851-0.149 15.081 0 27.307 12.226 27.307 27.307 0 1.095-0.064 2.175-0.19 3.236l0.012-0.129v201.614c0.146 1.075 0.23 2.318 0.23 3.58 0 15.458-12.531 27.989-27.989 27.989-1.244 0-2.47-0.081-3.671-0.239l0.141 0.015h-199.452c-1.126 0.158-2.427 0.248-3.749 0.248-15.709 0-28.444-12.735-28.444-28.444 0-1.251 0.081-2.482 0.237-3.69l-0.015 0.143 0.171-100.352zM231.708 268.8c-0.229 0.005-0.498 0.007-0.768 0.007-22.751 0-41.195-18.444-41.195-41.195 0-22.481 18.008-40.756 40.386-41.187l0.040-0.001c0.17-0.002 0.37-0.004 0.571-0.004 22.84 0 41.385 18.388 41.64 41.167v0.024c0.007 0.288 0.012 0.628 0.012 0.968 0 22.307-18.084 40.391-40.391 40.391-0.084 0-0.168 0-0.252-0.001h0.013zM263.737 789.618v107.691h124.132v61.668c-1.075 0.37-2.343 0.669-3.652 0.842l-0.103 0.011c-45.511 0-90.567 0.455-135.851 0-25.308-1.052-45.646-20.956-47.38-45.982l-0.009-0.155c-1.081-40.903-0.284-81.92-0.284-123.79zM201.102 1.081c2.301-20.708 19.705-36.666 40.837-36.666 0.544 0 1.085 0.011 1.623 0.031l-0.077-0.002h105.7c0.683-0.063 1.477-0.099 2.279-0.099 14.308 0 25.933 11.482 26.165 25.735v0.022c-0.219 14.505-12.028 26.179-26.564 26.179-0.662 0-1.318-0.024-1.967-0.072l0.087 0.005h-97.792v89.714c0 2.958-3.698 8.306-5.689 8.42-14.62 0.74-29.355 0.398-45.056 0.398 0.455-39.026-0.683-76.345 0.455-113.664zM430.592-43.634c7.767 9.644 12.467 22.043 12.467 35.539 0 18.325-8.665 34.627-22.121 45.031l-0.131 0.098c-8.899 7.123-20.32 11.432-32.748 11.432-16.107 0-30.524-7.237-40.177-18.636l-0.064-0.077c26.169-2.958 40.903-16.27 41.87-37.774s-12.117-35.499-38.286-41.301c9.637-9.194 22.718-14.852 37.121-14.852 17.109 0 32.353 7.984 42.21 20.429l0.086 0.112zM230.628 369.55h-89.6c-16.213 0-21.447 5.12-21.504 21.22v173.739c0 15.36 5.689 20.821 20.992 20.821h180.224c15.36 0 21.675-6.258 21.732-21.675v-173.739c0-14.791-5.689-20.309-20.196-20.366-30.151-0.114-60.871 0-91.42 0zM315.961 395.947c0 4.267 0.569 7.452 0.569 10.638v141.369c0 10.069-3.527 11.776-12.459 11.719-48.924-0.398-97.849 0-146.773 0-3.47 0-6.94-0.284-10.354-0.455v-163.1zM185.116 531.001c3.656-4.892 5.854-11.060 5.854-17.741 0-10.023-4.947-18.891-12.532-24.295l-0.091-0.062c-7.551-7.956-12.196-18.736-12.196-30.6 0-14.964 7.388-28.202 18.715-36.266l0.137-0.092c10.908-7.983 24.591-12.773 39.392-12.773 15.86 0 30.435 5.5 41.922 14.696l-0.133-0.103c17.549 13.47 28.75 34.454 28.75 58.054 0 22.292-9.993 42.249-25.744 55.637l-0.104 0.086-22.016-43.065c-13.426 33.792-29.639 58.197-69.177 49.38 2.844-4.779 5.291-8.704 7.339-12.857z" />
<glyph unicode="&#xe906;" glyph-name="burner" horiz-adv-x="753" d="M0-64v251.449h103.936v146.261h93.924c-2.958 10.297-6.315 19.228-8.021 28.444-0.79 4.288-1.241 9.222-1.241 14.262 0 44.184 34.715 80.261 78.358 82.441l0.195 0.008c14.564 0.512 29.127 0 45.852 0-5.404 7.111-9.614 12.459-13.653 17.977-31.069 41.741-49.74 94.31-49.74 151.241 0 21.497 2.662 42.373 7.675 62.314l-0.374-1.758c22.613 102.462 63.379 192.774 119.106 271.778l-1.574-2.352c0.583 0.7 1.178 1.331 1.809 1.924l0.011 0.011c1.308-0.88 2.445-1.855 3.459-2.946l0.011-0.012c53.139-70.167 93.277-153.358 115.016-243.716l0.924-4.548c5.95-21.865 9.369-46.969 9.369-72.871 0-43.731-9.744-85.186-27.179-122.313l0.744 1.762c-9.557-19.57-22.756-37.376-34.532-56.434 1.764 0 5.177-0.284 8.59-0.398 5.413 0.19 11.774 0.299 18.16 0.299 15.072 0 30.003-0.604 44.77-1.79l-1.946 0.126c41.44-4.608 73.374-39.439 73.374-81.729 0-13.003-3.019-25.3-8.394-36.23l0.215 0.483-2.276-5.689h71.964v-62.578h42.268v20.196h37.319c1.479 0 4.039-3.47 4.039-5.291v-77.596h-41.017l-1.764 19.456h-39.822v-41.358h103.481v-250.311zM711.111 144.327h-668.615v-61.44h668.615zM606.834 290.93h-459.662v-81.977h459.093v20.309h-82.318v41.358h82.887zM385.877 334.279h114.745c0.191-0.003 0.416-0.005 0.642-0.005 22.967 0 41.586 18.619 41.586 41.586 0 7.302-1.882 14.165-5.188 20.129l0.108-0.213c-6.971 13.075-20.52 21.824-36.112 21.824-0.965 0-1.923-0.034-2.871-0.099l0.128 0.007h-225.166c-0.543 0.025-1.18 0.039-1.82 0.039-23.25 0-42.098-18.848-42.098-42.098 0-0.014 0-0.028 0-0.042v0.002c0.056-22.705 18.475-41.090 41.187-41.090 0.861 0 1.715 0.026 2.563 0.078l-0.116-0.006c37.547-0.171 74.923-0.114 112.299-0.114zM376.775 689.493c-30.498-25.234-52.078-60.295-59.896-100.281l-0.178-1.095c-0.197-4.522-0.31-9.826-0.31-15.156 0-40.924 6.629-80.3 18.871-117.113l-0.755 2.619h78.393c3.269 0.641 5.936 2.765 7.312 5.627l0.027 0.061c3.807 9.666 7.427 21.495 10.192 33.648l0.332 1.737c5.265 16.318 8.299 35.092 8.299 54.574 0 1.514-0.018 3.024-0.055 4.529l0.004-0.223c-9.281 50.725-31.313 95.205-62.644 131.42l0.294-0.348z" />
<glyph unicode="&#xe907;" glyph-name="calendar" horiz-adv-x="1009" d="M756.042 743.86c32.258 4.084 56.952 31.353 56.952 64.39 0 2.277-0.117 4.526-0.346 6.742l0.023-0.278v74.292c0.939 3.911 1.478 8.401 1.478 13.017 0 32.073-26 58.072-58.072 58.072s-58.072-26-58.072-58.072c0-4.616 0.539-9.106 1.556-13.411l-0.079 0.394v-74.292c-0.21-1.959-0.33-4.232-0.33-6.533 0-33.002 24.667-60.242 56.57-64.289l0.32-0.033zM250.983 743.86c33.507 3.324 59.462 31.364 59.462 65.466 0 1.897-0.080 3.775-0.238 5.631l0.017-0.242v74.292c0.612 3.223 0.962 6.931 0.962 10.72 0 33.249-26.954 60.203-60.203 60.203s-60.203-26.954-60.203-60.203c0-3.789 0.35-7.497 1.020-11.092l-0.058 0.372v-74.292c-0.144-1.633-0.226-3.532-0.226-5.451 0-34.091 25.964-62.117 59.196-65.383l0.271-0.022zM1008.262 837.12h-143.016v-36.149c0-59.704-48.4-108.104-108.104-108.104s-108.104 48.4-108.104 108.104v36.149h-288.644v-36.149c0-59.723-48.415-108.139-108.139-108.139s-108.139 48.415-108.139 108.139v36.149l-144.322 1.787v-902.907h1009.293zM937.269 7.886h-865.177v576.876h865.108zM357.163 507.31h113.602v-100.27h-113.602zM540.796 507.31h113.74v-100.27h-113.74zM721.13 507.31h113.602v-100.27h-113.602zM357.163 340.789h113.602v-100.201h-113.602zM540.796 340.789h113.74v-100.201h-113.74zM721.13 340.789h113.602v-100.201h-113.602zM357.163 170.97h113.602v-100.201h-113.602zM174.561 340.789h113.533v-100.201h-113.533zM174.561 170.97h113.533v-100.201h-113.533zM540.796 170.97h113.74v-100.201h-113.74zM174.492 507.31h113.602v-100.201h-113.602z" />
<glyph unicode="&#xe908;" glyph-name="checkmark" horiz-adv-x="1294" d="M508.245-64l-146.546 146.887-347.705 347.819c-18.66 18.66-18.66 22.756 0 41.984l199.566 199.566c15.246 15.246 21.732 15.246 37.092 0l244.964-245.077c3.868-3.982 7.054-8.761 13.881-17.408 3.57 6.399 7.336 11.906 11.539 17.043l-0.162-0.204q259.641 259.982 519.623 519.851c18.318 18.318 22.756 18.318 40.846 0l198.542-198.542c17.977-17.977 18.091-22.756 0-39.936l-762.311-761.742c-2.569-3.986-5.665-7.372-9.241-10.173l-0.089-0.067z" />
<glyph unicode="&#xe909;" glyph-name="close" horiz-adv-x="1028" d="M952.451-62.093l-435.889 437.333-438.982-439.085-69.487 72.837 435.529 435.168-443.312 442.436 73.868 69.744 435.993-437.384 440.838 441.147 70.157-72.167-435.941-435.683 443.312-442.281z" />
<glyph unicode="&#xe90a;" glyph-name="contact" horiz-adv-x="998" d="M0-64v1024h853.975v-74.67h143.974v-387.441h-142.95v-561.889zM76.472 884.224v-872.161h701.235v872.161zM925.164 574.034v82.207h-66.478v-82.207zM921.928 808.079h-66.601v-74.793h66.601zM152.453 95.375h556.851v74.629h-556.892zM504.3 484.864c-21.705 13.328-47.991 21.222-76.121 21.222-34.604 0-66.417-11.946-91.541-31.939l0.3 0.231c-38.916-27.799-63.983-72.818-63.983-123.692 0-0.363 0.001-0.725 0.004-1.087v0.056h311.828c0 0.089 0 0.194 0 0.299 0 57.966-32.221 108.406-79.729 134.387l-0.798 0.4zM429.588 694.948c-0.708 0.023-1.54 0.035-2.375 0.035-44.022 0-79.708-35.687-79.708-79.708s35.687-79.708 79.708-79.708c0.331 0 0.662 0.002 0.992 0.006h-0.050c0.283-0.004 0.617-0.006 0.951-0.006 43.773 0 79.258 35.485 79.258 79.258 0 0.42-0.003 0.839-0.010 1.257l0.001-0.063c0.006 0.368 0.010 0.803 0.010 1.239 0 42.845-34.733 77.578-77.578 77.578-0.436 0-0.87-0.004-1.304-0.011l0.065 0.001z" />
<glyph unicode="&#xe90b;" glyph-name="contact-person" horiz-adv-x="793" d="M0.171 439.637c0 121.97-0.569 243.883 0.512 365.852 0.298 23.691 4.441 46.318 11.83 67.419l-0.453-1.484c15.843 51.621 63.090 88.504 118.951 88.504 2.182 0 4.352-0.056 6.506-0.168l-0.302 0.012c93.81 0.398 187.733 0 281.429 0h334.905c1.188 0.144 2.564 0.226 3.959 0.226 15.938 0 29.37-10.726 33.472-25.354l0.059-0.245c1.226-3.268 1.936-7.044 1.936-10.987 0-14.881-10.113-27.4-23.841-31.060l-0.225-0.051c-3.584-1.138-7.282-1.764-10.923-2.617-28.574-5.996-49.722-30.988-49.722-60.919 0-28.346 18.967-52.261 44.902-59.748l0.439-0.109c35.726-11.378 39.253-16.043 39.253-53.646v-735.915c0-30.208-13.369-43.349-43.975-43.349h-613.376c-1.203-0.040-2.617-0.062-4.036-0.062-72.515 0-131.3 58.785-131.3 131.3 0 1.322 0.020 2.64 0.058 3.952l-0.005-0.193c-0.284 122.88-0.057 245.76-0.057 368.64zM724.48 698.254h-562.802c-5.128-0.482-11.088-0.757-17.112-0.757-26.553 0-51.859 5.338-74.904 14.999l1.278-0.475c-0.455 0-1.536-0.74-2.56-1.252 0-1.764-0.398-3.641-0.398-5.689v-636.075c-0.045-0.884-0.071-1.92-0.071-2.962 0-34.341 27.839-62.18 62.18-62.18 1.887 0 3.755 0.084 5.6 0.249l-0.238-0.017h575.545c4.437 0 8.875 0.569 13.426 0.853zM658.091 766.18c-11.286 17.959-17.981 39.795-17.981 63.194 0 23.055 6.5 44.592 17.767 62.878l-0.297-0.519h-522.126c-1.552 0.139-3.358 0.218-5.182 0.218-28.856 0-53.096-19.765-59.92-46.495l-0.093-0.428c-1.369-4.884-2.156-10.493-2.156-16.286 0-34.561 28.017-62.578 62.578-62.578 1.7 0 3.384 0.068 5.050 0.201l-0.22-0.014h485.092zM259.868 329.045c-27.636 31.668-44.487 73.369-44.487 119.006 0 100.195 81.224 181.419 181.419 181.419s181.419-81.224 181.419-181.419c0-45.637-16.851-87.339-44.671-119.221l0.184 0.215 12.060-8.875c65.442-45.933 108.382-120.085 111.037-204.397l0.010-0.403c0.4-2.003 0.629-4.306 0.629-6.662 0-19.668-15.944-35.612-35.612-35.612-1.888 0-3.742 0.147-5.551 0.43l0.201-0.026h-441.742c-1.18-0.142-2.547-0.222-3.932-0.222-19.26 0-34.873 15.613-34.873 34.873 0 2.231 0.209 4.412 0.61 6.527l-0.034-0.217c2.096 86.379 46.342 161.995 112.882 207.297l0.895 0.575zM581.803 141.653c0.278 1.359 0.462 2.946 0.511 4.566l0.001 0.042c-0.132 2.084-0.457 4.027-0.958 5.898l0.048-0.209c-14.059 61.862-56.988 111.376-113.535 134.316l-1.267 0.454c-14.393 5.689-25.884 13.596-27.819 30.094-0.080 0.92-0.126 1.991-0.126 3.072 0 14.691 8.437 27.411 20.731 33.58l0.216 0.098c30.633 20.708 50.505 55.314 50.505 94.562 0 7.684-0.762 15.189-2.214 22.446l0.121-0.726c-10.524 52.477-56.236 91.456-111.052 91.456-48.773 0-90.339-30.858-106.238-74.116l-0.252-0.785c-4.258-11.464-6.722-24.708-6.722-38.527 0-39.088 19.711-73.572 49.735-94.055l0.393-0.253c12.593-6.254 21.096-19.027 21.096-33.786 0-0.983-0.038-1.957-0.112-2.921l0.008 0.128c-1.991-17.067-14.108-24.69-28.843-30.891-56.906-23.178-99.279-71.697-113.518-131.152l-0.26-1.286c-0.704-3.483-1.213-7.607-1.415-11.81l-0.007-0.194z" />
<glyph unicode="&#xe90c;" glyph-name="contacts-list" horiz-adv-x="912" d="M911.77-64h-845.988v198.369h-65.782v134.513h64.963v111.043h-64.84v134.717h64.676v110.592h-64.758v134.717h65.782v200.049h845.988c0-4.342 0.328-8.643 0.328-12.984v-817.234c0.041-64.594-0.205-129.188-0.369-193.782zM334.766 914.534v-933.11h532.111v933.11zM110.305-17.879h176.374v932.495h-176.128v-155.32h67.011v-132.137h-67.133v-111.002h66.97v-134.676h-66.806v-110.592h66.888v-134.676h-67.174zM44.36 713.871v-43.172h88.515v43.172zM44.36 427.151h88.556v41.738h-88.556zM133.161 181.76v43.418h-88.392v-43.418zM733.553 448.328h-42.803c-0.064 43.992-21.346 83-54.158 107.347l-0.36 0.255c-21.624 16.55-49.048 26.519-78.8 26.519-5.068 0-10.068-0.289-14.985-0.852l0.601 0.056c-68.32-6.596-121.349-63.55-121.692-132.962v-0.035h-44.81c1.287 71.569 43.854 132.894 104.847 161.284l1.117 0.467c-22.972 20.616-37.356 50.403-37.356 83.548 0 5.843 0.447 11.582 1.309 17.183l-0.079-0.626c4.053 28.655 18.977 53.222 40.389 69.819l0.244 0.182c18.7 14.792 42.623 23.729 68.634 23.729 61.372 0 111.124-49.752 111.124-111.124 0-32.886-14.286-62.436-36.99-82.782l-0.105-0.092c61.503-29.148 103.383-90.52 103.874-161.727v-0.065zM622.019 692.9c0.001 0.158 0.002 0.345 0.002 0.532 0 36.489-29.58 66.068-66.068 66.068s-66.068-29.58-66.068-66.068c0-36.401 29.439-65.927 65.807-66.068h0.013c36.335 0.112 65.807 29.34 66.314 65.57l0.001 0.048zM701.604 181.391h-219.709c-24.289 0-48.62 0-72.909-0.205-2.99 0-8.192-2.908-8.479-4.669-0.737-13.148-0.41-26.337-0.41-39.772h311.296v44.605zM400.876 247.992h310.149v43.827h-310.149z" />
<glyph unicode="&#xe90d;" glyph-name="contract" horiz-adv-x="1113" d="M784.1 726.13v15.303c0 43.406-0.284 86.812 0 130.219 0 10.411-3.015 13.312-13.369 13.312-114.404-0.341-228.807 0-343.154 0h-128c-9.671 0-13.084-2.332-12.914-12.572 0.569-41.87 0.341-83.797 0-125.724 0.165-1.782 0.26-3.854 0.26-5.949 0-37.703-30.564-68.267-68.267-68.267-2.094 0-4.166 0.094-6.212 0.279l0.264-0.019h-137.956v-661.106h707.925c0.341 4.608 0.91 9.33 0.91 13.995v209.522c-0.014 0.308-0.022 0.67-0.022 1.033 0 7.022 2.98 13.349 7.744 17.784l0.015 0.014c21.504 21.618 42.382 43.804 63.488 65.82l3.413-2.389c0-3.584 0.512-7.111 0.512-10.695v-297.87c0.137-1.615 0.215-3.494 0.215-5.392 0-37.326-30.258-67.584-67.584-67.584-1.898 0-3.778 0.078-5.636 0.232l0.244-0.016h-712.988c-1.546-0.126-3.346-0.197-5.163-0.197-37.388 0-67.698 30.309-67.698 67.698 0 1.891 0.078 3.765 0.23 5.617l-0.016-0.243v694.044c-0.013 0.423-0.020 0.921-0.020 1.42 0 14.494 6.097 27.565 15.867 36.786l0.025 0.023q100.466 100.58 200.135 201.899c9.648 10.287 23.325 16.697 38.5 16.697 0.605 0 1.208-0.010 1.808-0.030l-0.087 0.002q264.476-0.398 529.067 0c1.586 0.13 3.432 0.204 5.296 0.204 38.048 0 68.892-30.844 68.892-68.892 0-1.994-0.085-3.969-0.251-5.92l0.017 0.254v-78.165c0.037-0.41 0.058-0.888 0.058-1.37 0-3.369-1.020-6.499-2.768-9.099l0.037 0.058c-21.163-21.504-42.78-42.667-64.284-63.829-2.332-1.764-4.38-3.3-8.533-6.884zM1093.746 736.142c-16.1 17.522-31.972 35.214-48.242 52.565-13.17 15.872-32.9 25.906-54.974 25.906-21.071 0-40.007-9.143-53.057-23.678l-0.058-0.066q-212.082-209.977-423.708-420.409c-4.858-4.918-8.723-10.83-11.26-17.402l-0.118-0.347c-23.495-63.204-46.535-126.635-69.86-189.895-3.129-8.533-5.291-17.067 1.991-24.235 3.626-3.196 8.417-5.147 13.663-5.147 3.466 0 6.734 0.852 9.604 2.357l-0.114-0.054 171.008 51.2c8.511 2.74 15.81 7.192 21.804 12.986l-0.016-0.015q134.713 132.779 268.8 266.24 84.423 83.74 168.96 167.424c14.947 13.774 24.411 33.302 24.859 55.045l0.001 0.080c-0.456 18.397-7.731 35.011-19.381 47.487l0.039-0.042zM617.188 226.645c-1.001-3.112-3.216-5.587-6.074-6.911l-0.070-0.029c-19.285-6.485-38.628-12.686-58.197-18.261-0.606-0.102-1.304-0.16-2.016-0.16-3.299 0-6.307 1.248-8.577 3.299l0.011-0.010c-11.438 11.759-22.591 24.101-33.28 36.844l-0.853 1.044c-1.785 2.654-2.848 5.923-2.848 9.44 0 1.559 0.209 3.069 0.601 4.504l-0.028-0.12c8.021 23.893 17.067 47.502 25.429 71.282 2.162 6.201 5.12 9.387 12.117 8.932 3.882-0.21 8.427-0.33 12.999-0.33s9.117 0.12 13.63 0.357l-0.631-0.026c6.94 0 9.33-2.617 9.045-9.387-0.398-9.045 0-18.091 0-27.136-0.051-0.502-0.081-1.084-0.081-1.674 0-9.614 7.794-17.408 17.408-17.408 0.589 0 1.172 0.029 1.746 0.086l-0.073-0.006c9.444-0.341 18.83 0 28.444-0.398 0.683 0 1.365-0.626 2.788-1.252-3.868-17.465-7.396-35.157-11.548-52.679z" />
<glyph unicode="&#xe90e;" glyph-name="contract-list" horiz-adv-x="928" d="M0 783.872c17.151 31.5 50.010 52.519 87.778 52.519 12.29 0 24.060-2.226 34.929-6.296l-0.687 0.226v-58.532l-55.419-4.71c-0.778-12.042-2.212-23.552-2.212-35.062 0-229.171 0.532-458.342-0.778-687.473 0-32.768 8.192-43.663 42.189-43.377q261.775 2.376 523.592 0c33.628-0.287 45.056 10.527 42.394 43.418-2.417 31.785 2.949 64.348-1.188 95.805-1.066 5.833-1.676 12.546-1.676 19.401 0 45.682 27.076 85.041 66.056 102.902l0.705 0.29v-86.999c0-42.639-2.417-85.443 0.614-127.836 0.915-5.243 1.437-11.28 1.437-17.439 0-41.033-23.207-76.646-57.211-94.43l-0.587-0.28h-679.936zM344.064 960c-36.545-15.198-62.41-49.29-65.514-89.753l-0.022-0.359c-94.208-11.018-94.208-11.018-88.433-98.918 0-1.311-0.532-3.236 0-4.096 10.486-10.404 20.931-29.368 31.785-29.614q145.572-3.482 291.267 0c14.74 3.874 26.283 14.794 30.958 28.851l0.090 0.312c11.796 91.668 8.847 94.208-79.995 101.376-2.673 0.701-4.962 1.526-7.154 2.528l0.272-0.112c-3.706 40.471-29.259 74.187-64.633 89.515l-0.698 0.269zM368.23 857.231c-8.847-0.328-26.501 14.991-25.559 21.258 2.484 13.151 10.973 23.907 22.448 29.466l0.244 0.107c8.847 2.212 21.586-11.059 42.639-23.347-19.456-14.213-29.409-27.116-39.854-27.484zM928.072 583.987c-44.073 41.697-66.191 37.519-107.766-18.104l62.628-63.201 45.056 41.329zM735.928 732.836c0 85.443-34.611 113.050-122.88 96.297v-57.344l53.248-4.096c1.972-3.712 3.531-8.016 4.453-12.552l0.053-0.309c0.369-105.062 1.147-210.166 0-315.392-2.089-14.538-8.94-27.19-18.894-36.59l-0.030-0.028c-38.42-39.895-78.397-78.275-115.876-115.343l60.662-63.283 240.517 240.026-51.61 69.632-49.357-45.261c-0.369 87.409-0.41 165.806-0.369 244.244zM180.879 415.764c-23.962 0-46.899-7.004-42.189-33.628 7.86-15.928 23.015-27.213 40.979-29.545l0.267-0.028c124.887-2.294 249.856-1.065 374.702-1.352 24.084 0 46.899 6.636 42.189 33.3-7.969 15.913-23.096 27.217-41.041 29.745l-0.287 0.033c-60.948 3.4-122.184 1.393-183.296 1.393-63.816-0.041-127.59-0.246-191.406 0.082zM366.346 560.845c61.153 0 122.266 0.205 183.378 0 24.576 0 48.497 3.564 48.66 33.505 0 28.099-22.651 31.375-45.793 31.334q-185.385-0.41-370.77 0c-23.429 0-45.056-3.809-44.564-32.317 0.614-27.689 22.446-32.358 45.711-32.317h183.378zM315.843 205.271c-47.759 0-95.724 1.884-143.36-1.679-12.616-0.942-23.962-18.924-35.881-29.123 10.609-11.141 20.972-31.58 31.908-31.908 88.433-2.621 176.988-1.475 265.994-1.475l5.161 64.184c-44.401 0.041-84.132 0.082-123.904 0zM500.163 246.231l-22.938-85.402 82.698 23.142z" />
<glyph unicode="&#xe90f;" glyph-name="control-unit" horiz-adv-x="894" d="M87.268 960l13.312-3.527c37.194-9.163 64.345-42.232 64.345-81.643 0-0.277-0.001-0.555-0.004-0.831v0.042-168.619c13.084-1.195 25.372-1.764 37.433-3.527 73.065-9.95 135.105-50.326 173.86-107.718l0.562-0.883c5.177-7.452 8.988-7.851 16.782-4.324q140.004 63.374 280.405 125.952c5.625 1.707 9.648 6.847 9.648 12.926 0 0.336-0.012 0.669-0.036 0.999l0.003-0.044c2.649 55.98 48.68 100.364 105.077 100.364 53.868 0 98.279-40.492 104.454-92.7l0.048-0.496c0.477-3.759 0.75-8.108 0.75-12.521 0-57.968-46.992-104.96-104.96-104.96-23.007 0-44.286 7.403-61.583 19.956l0.304-0.21c-2.364 2.065-5.478 3.324-8.886 3.324-2.351 0-4.561-0.599-6.488-1.653l0.071 0.035q-144.156-65.081-288.597-129.593c-4.188-1.193-7.203-4.985-7.203-9.481 0-1.275 0.243-2.494 0.684-3.613l-0.023 0.067c3.153-15.074 4.958-32.397 4.958-50.141 0-125.789-90.723-230.388-210.307-251.934l-1.557-0.233c-10.752-1.991-21.845-2.105-32.768-3.129l-12.629-1.308v-165.66c0.063-1.21 0.098-2.627 0.098-4.052 0-42.519-31.754-77.622-72.841-82.888l-0.416-0.044c-1.718-0.526-3.207-1.183-4.598-1.99l0.104 0.056h-8.021c-1.039 0.602-2.243 1.142-3.505 1.554l-0.136 0.038c-42.971 4.831-76.067 40.965-76.067 84.829 0 2.922 0.147 5.81 0.434 8.657l-0.029-0.358v838.372c-0.072 1.314-0.114 2.852-0.114 4.4 0 39.898 27.381 73.4 64.378 82.741l0.589 0.126c4.779 1.252 9.614 2.332 14.393 3.47z" />
<glyph unicode="&#xe910;" glyph-name="customer" d="M0-36.27c3.277 19.169 5.448 38.584 10.035 57.344 25.568 108.774 96.231 197.42 190.702 246.669l2.056 0.976c2.171 1.188 4.424 2.294 6.554 3.523 0.551 0.434 1.025 0.934 1.419 1.493l0.015 0.022c-46.134 43.719-74.842 105.43-74.842 173.846 0 132.178 107.151 239.329 239.329 239.329s239.329-107.151 239.329-239.329c0-68.269-28.585-129.862-74.438-173.464l-0.101-0.096c125.88-62.598 210.862-190.327 210.862-337.905 0-0.048 0-0.096 0-0.145v0.007h-750.92zM74.097 4.69h599.982c-0.085 2.088-0.32 4.060-0.696 5.981l0.040-0.247c-25.722 101.402-99.702 181.238-195.452 214.676l-2.139 0.65c-1.749 0.504-3.757 0.794-5.833 0.794-2.931 0-5.726-0.577-8.28-1.625l0.145 0.053c-25.729-10.175-55.533-16.074-86.716-16.074-30.656 0-59.98 5.701-86.971 16.102l1.654-0.561c-2.758 0.988-5.941 1.559-9.256 1.559-3.088 0-6.061-0.495-8.843-1.411l0.2 0.057c-76.834-27.432-137.941-82.813-172.229-153.602l-0.786-1.8c-9.748-20.111-16.22-41.943-24.822-64.471zM375.644 618.557c-0.061 0-0.132 0-0.204 0-94.242 0-170.639-76.398-170.639-170.639s76.398-170.639 170.639-170.639c94.069 0 170.359 76.118 170.639 170.121v0.027c0 0.146 0.001 0.319 0.001 0.492 0 94.172-76.248 170.535-170.376 170.721h-0.018zM1024 236.81c-3.195 18.842-5.243 37.929-9.789 56.443-25.509 109.471-96.669 198.672-191.833 247.979l-2.072 0.976c-2.458 1.311-4.874 2.744-8.192 4.506 5.366 5.857 10.568 11.059 15.278 16.671 36.853 41.843 59.345 97.107 59.345 157.624 0 121.411-90.529 221.677-207.768 236.979l-1.204 0.128c-2.285 0.543-4.252 1.204-6.138 2.017l0.239-0.092h-46.817c-1.661-0.727-3.63-1.375-5.669-1.84l-0.229-0.044c-71.563-8.589-132.413-48.238-169.474-104.862l-0.551-0.896c-19.111-27.809-32.233-61.172-36.752-97.21l-0.112-1.094 66.601-15.811c9.005 86.545 81.557 153.443 169.734 153.443 94.219 0 170.598-76.38 170.598-170.598 0-88.216-66.957-160.794-152.823-169.684l-0.731-0.061 16.384-68.321c18.186 5.284 35.799 10.65 53.576 15.319 2.25 0.692 4.837 1.090 7.516 1.090s5.266-0.398 7.704-1.139l-0.187 0.049c94.602-33.729 166.495-110.058 193.425-205.267l0.521-2.154c1.27-4.096 1.843-8.52 3.072-14.295h-286.433c19.21-20.070 38.38-39.567 56.771-59.802 3.782-4.863 9.633-7.961 16.209-7.961 0.278 0 0.554 0.006 0.829 0.016l-0.040-0.001q144.507 0.41 289.055 0z" />
<glyph unicode="&#xe911;" glyph-name="dashboard" d="M480.017 960h64c2.56-0.546 5.12-1.229 7.714-1.638 29.184-4.779 58.88-7.578 87.484-14.643 194.215-50.797 341.392-208.165 376.576-404.383l0.461-3.101c3.106-18.671 5.222-37.547 7.782-56.252v-64c-0.66-2.389-1.258-5.35-1.666-8.37l-0.041-0.368c-3.422-52.445-15.108-101.241-33.784-146.413l1.118 3.053c-64.392-167.015-210.204-289.474-387.463-319.681l-2.988-0.421c-18.193-3.413-36.762-5.188-55.194-7.714h-64c-2.56 0.58-5.086 1.229-7.68 1.673-36.893 4.218-69.54 10.215-101.402 18.194l5.317-1.127c-190.927 51.675-334.937 207.958-367.949 402.052l-0.418 2.974c-3.823 18.5-5.291 37.547-7.885 56.218v64c0.58 2.901 1.297 5.769 1.707 8.704 3.413 23.347 5.7 46.967 10.479 70.042 45.892 201.672 206.129 356.123 407.455 392.878l3.135 0.475c19.012 3.038 38.025 5.222 57.242 7.851zM511.761-23.996c0.081 0 0.176 0 0.272 0 260.676 0 471.996 211.32 471.996 471.996s-211.32 471.996-471.996 471.996c-260.316 0-471.412-210.736-471.995-470.916v-0.056c0-0.182 0-0.399 0-0.615 0-260.65 211.095-471.997 471.65-472.405h0.039zM99.942 448.307c0.175 227.46 184.608 411.784 412.092 411.784 227.592 0 412.092-184.5 412.092-412.092 0-227.436-184.246-411.838-411.623-412.091h-0.025c-0.193 0-0.421-0.001-0.649-0.001-227.498 0-411.921 184.423-411.921 411.921 0 0.168 0 0.337 0 0.505v-0.027zM904.329 447.078c0.001 0.273 0.001 0.597 0.001 0.921 0 216.658-175.636 392.294-392.294 392.294s-392.294-175.636-392.294-392.294c0-216.406 175.227-391.885 391.538-392.294h0.039c0.304-0.001 0.664-0.001 1.024-0.001 216.266 0 391.623 175.153 391.953 391.342v0.032zM707.584 683.349q-129.058-123.767-257.775-247.91c-4.336-3.352-7.101-8.555-7.101-14.404 0-6.175 3.083-11.631 7.793-14.911l0.059-0.039c10.752-9.933 21.709-19.695 32.631-29.457 14.541-12.971 23.279-12.049 35.465 3.618l216.644 279.381c2.985 2.953 4.834 7.049 4.834 11.578 0 3.312-0.989 6.392-2.687 8.963l0.038-0.061c-4.365 4.688-9.247 8.8-14.582 12.275l-0.3 0.183c-5.751-2.734-10.689-5.748-15.274-9.205l0.222 0.16zM501.999 694.067c0-7.475 1.638-13.926 10.24-13.653 8.124 0 9.762 6.349 9.728 13.414v100.727c0 7.168-1.809 13.141-9.865 13.278s-10.24-5.666-10.24-12.937v-50.859c0-16.964 0.239-33.212 0.068-49.937zM266.24 438.477c7.168 0 13.995 1.024 14.029 10.24s-6.827 9.933-14.029 9.933h-99.635c-7.031 0-13.414-1.331-13.653-9.421s6.11-10.718 13.653-10.684h49.835zM808.073 458.479h-50.995c-6.827 0-13.21-1.161-13.278-9.728s5.973-10.24 12.971-10.24h100.966c7.066 0 13.244 1.946 13.38 10.001s-5.837 10.24-13.073 10.24h-49.971zM345.737 628.907c-23.62 23.893-47.445 47.479-71.134 71.305-4.949 4.983-10.411 8.397-16.316 2.526s-2.833-11.844 2.458-17.067q35.021-34.782 69.837-69.769c1.532-1.739 3.221-3.277 5.065-4.615l0.089-0.061c1.558-1.008 3.462-1.606 5.506-1.606 5.655 0 10.24 4.585 10.24 10.24 0 0.337-0.016 0.671-0.048 1l0.003-0.042c-1.74 3.064-3.626 5.712-5.75 8.148l0.050-0.058z" />
<glyph unicode="&#xe912;" glyph-name="delete" d="M513.195 631.552c130.048 0 260.096-0.512 390.144 0.512 22.101 0 28.331-5.973 28.245-28.331q-1.28-280.576 0-561.152c0.212-2.424 0.332-5.244 0.332-8.092 0-54.527-44.203-98.731-98.731-98.731-2.429 0-4.838 0.088-7.223 0.26l0.32-0.019c-211.883 1.792-423.765 0.683-635.648 0.853-1.789-0.124-3.878-0.195-5.982-0.195-50.71 0-91.819 41.109-91.819 91.819 0 2.020 0.065 4.025 0.194 6.013l-0.014-0.271c0 191.403 0 382.805-0.597 574.293 0 18.944 6.656 23.381 24.149 23.296 132.181-0.512 264.448-0.256 396.629-0.256zM229.461 450.133v-317.184c0-11.52 4.779-15.531 15.787-15.36 21.163 0 42.667 0.853 63.573 0 15.872-0.683 20.565 6.656 20.139 20.992-0.512 17.067 0 33.621 0 50.432v236.8c0 9.899 4.267 24.064-13.568 24.235-27.904 0.683-55.467 0-85.931 0zM562.261 283.819c0 48.896-0.427 97.792 0 146.688 0 15.36-5.12 20.651-20.224 19.968-9.47-0.408-20.58-0.64-31.744-0.64s-22.274 0.232-33.326 0.692l1.582-0.052c-12.373 0-16.555-4.864-16.555-17.067v-297.728c0-12.971 4.608-18.517 17.92-18.176 20.395 0.597 40.875 0.853 61.269 0 16.64-0.853 21.333 6.229 21.163 21.931-0.853 47.957-0.427 96.085-0.427 144.299zM794.965 450.048c-31.147 0-59.733 0.683-87.552-0.768-4.181 0-11.264-10.667-11.349-16.384-0.683-99.157-0.512-198.4-0.683-297.557 0-13.141 5.973-18.091 18.773-17.749 21.163 0.512 42.667 0.683 63.403 0 13.483-0.427 17.92 5.205 17.067 18.176-0.683 19.627 0 39.339 0 59.051zM512.341 686.421h-477.867c-33.621 0-33.621 0-33.621 34.731 0 24.832 1.195 49.749 0 74.496-1.28 20.139 6.741 24.405 25.6 24.235 92.075-0.768 184.149 0 276.224-0.768 21.163 0 28.416 6.229 27.477 27.307-1.451 31.317 0 62.805-0.512 93.867 0 13.824 4.437 19.456 19.029 19.371q164.352-0.683 328.789 0c14.507 0 19.2-5.376 18.944-19.285-0.683-32.171 0.683-64.341-0.597-96.427-0.683-19.115 5.888-25.6 25.173-25.173 92.757 0.853 185.6 0 278.357 0.939 20.821 0 26.539-6.485 25.6-26.283-0.764-12.749-1.199-27.657-1.199-42.667s0.435-29.916 1.294-44.71l-0.095 2.043c1.195-20.651-9.131-22.101-25.6-22.101q-219.221 0.512-438.443 0zM511.147 819.541c26.197 0 52.48 0.853 78.592 0 19.883-0.853 20.651 11.008 20.139 25.6s2.304 27.733-20.139 27.221q-77.483-1.792-155.051 0c-20.224 0.427-20.395-10.752-19.968-24.917s-2.304-28.587 19.968-27.563c25.088 0.341 50.603-0.512 76.117-0.512z" />
<glyph unicode="&#xe913;" glyph-name="delivery-address" horiz-adv-x="1439" d="M978.88 901.056c37.568-7.936 75.008-12.8 110.656-23.872 150.942-40.374 270.249-149.13 324.404-290.179l1.1-3.261c15.117-38.819 23.877-83.754 23.877-130.736 0-0.658-0.002-1.316-0.005-1.974v0.102-345.6c0.197-1.559 0.309-3.363 0.309-5.193 0-24.212-19.628-43.84-43.84-43.84-1.891 0-3.754 0.12-5.582 0.352l0.217-0.023c-16.768 0-33.536-1.344-50.176-0.448-0.928 0.171-1.996 0.269-3.087 0.269-8.643 0-15.852-6.141-17.502-14.298l-0.019-0.114c-23.732-62.422-83.066-105.976-152.572-105.976-39.142 0-75.057 13.812-103.139 36.828l0.287-0.228c-23.166 18.591-40.856 43.109-50.855 71.269l-0.345 1.115c-1.171 6.364-6.676 11.122-13.292 11.122-0.616 0-1.223-0.041-1.817-0.121l0.069 0.008q-220.096-0.448-440.256 0c-0.534 0.074-1.152 0.116-1.779 0.116-6.575 0-12.073-4.611-13.436-10.776l-0.017-0.091c-22.976-64.082-83.194-109.097-153.926-109.097-70.517 0-130.584 44.742-153.362 107.386l-0.361 1.135c-1.533 6.619-7.378 11.477-14.358 11.477-0.737 0-1.462-0.054-2.17-0.159l0.080 0.010c-54.336-0.384-108.8 0-163.008 0-38.784 0-54.976 15.872-54.976 54.080v796.736c0 37.696 15.872 53.376 53.76 53.376h864c45.312 0 57.6-11.584 60.672-56.256-0.010-0.148-0.016-0.321-0.016-0.496 0-0.947 0.17-1.855 0.481-2.694l-0.017 0.054zM887.552 268.928c0 4.864 0.704 8.384 0.704 11.904q0 288 0.32 575.616c0 14.464-6.4 14.848-17.472 14.848h-764.416c-5.44 0-10.816-0.448-16.96-0.768v-601.6zM978.048 810.688v-540.8c0.185-1.71 0.29-3.694 0.29-5.702 0-30.999-25.129-56.128-56.128-56.128-1.657 0-3.297 0.072-4.917 0.212l0.211-0.015h-402.24c8.198-13.124 16.41-28.584 23.58-44.612l0.996-2.492c4.8-12.8 11.52-15.744 24.384-15.68q213.184 0.704 426.432 0c1.066-0.19 2.293-0.299 3.546-0.299 9.92 0 18.248 6.819 20.551 16.025l0.031 0.146c23.825 61.292 82.308 103.965 150.772 104.064h0.012c0.276 0.002 0.602 0.003 0.928 0.003 68.695 0 127.519-42.261 151.893-102.202l0.394-1.097c7.68-19.2 8.32-19.2 30.528-13.952v267.264h-161.984c-1.139-0.051-2.476-0.081-3.819-0.081-32.415 0-60.844 17.067-76.791 42.705l-0.222 0.384c-10.822 15.304-18.934 33.356-23.182 52.852l-0.178 0.972c-6.596 39.9-12.022 89.199-15.029 139.151l-0.203 4.209c-2.432 40.96-0.384 82.24-0.832 123.328 0 4.672-2.624 12.8-5.44 13.312-27.008 6.592-54.144 12.032-83.584 18.368zM1346.688 475.2c3.84 103.808-125.248 274.112-222.080 290.88 2.624-68.032 4.096-135.36 8.512-202.56 2.875-23.237 8.794-44.374 17.406-64.064l-0.574 1.472c3.989-14.169 16.332-24.564 31.251-25.594l0.109-0.006c54.656-0.576 109.44-0.192 165.312-0.192zM313.024 100.608c0.145-41.634 33.93-75.328 75.584-75.328 0.045 0 0.090 0 0.136 0h-0.007c40.693 1.34 73.172 34.65 73.172 75.546 0 41.053-32.73 74.462-73.519 75.556l-0.101 0.002c-41.634-0.145-75.328-33.93-75.328-75.584 0-0.090 0-0.18 0-0.27v0.014zM1241.664 101.184c-0.362 41.291-33.919 74.624-75.261 74.624-41.567 0-75.264-33.697-75.264-75.264s33.697-75.264 75.264-75.264c0.067 0 0.133 0 0.2 0h-0.010c41.48 0.254 75.009 33.939 75.009 75.455 0 0.135 0 0.271-0.001 0.406v-0.021zM90.24 207.232v-61.504h132.032c3.873 0.23 7.256 2.149 9.449 5.025l0.023 0.031c9.664 18.56 18.624 37.504 27.84 56.256z" />
<glyph unicode="&#xe914;" glyph-name="distribution-block" d="M204.004 960c3.015-1.195 5.973-2.56 9.045-3.641 24.959-8.651 42.612-31.838 42.894-59.188v-0.034q0.398-64.967 0-129.991c-0.065-34.818-28.272-63.025-63.084-63.090h-0.006q-64.967-0.512-129.991 0c-27.383 0.282-50.57 17.935-59.087 42.45l-0.134 0.444c-1.081 3.072-2.389 6.030-3.641 9.045v152.007c3.956 9.693 7.771 17.588 11.996 25.225l-0.618-1.218c9.666 13.699 23.798 23.686 40.245 27.884l0.488 0.106zM1024 908.004c-4.323 16.939-14.329 31.071-27.823 40.584l-0.223 0.149c-6.424 3.611-14.319 7.427-22.443 10.802l-1.564 0.576h-152.007c-3.015-1.195-5.689-2.56-8.988-3.641-24.937-8.589-42.59-31.719-42.894-59.014v-0.036c-0.284-43.577-0.398-87.154 0-130.844 0.412-34.394 28.184-62.166 62.539-62.577h0.039q65.365-0.512 130.844 0c27.349 0.25 50.505 17.927 58.919 42.452l0.132 0.442c1.081 3.072 2.389 6.030 3.641 8.988zM0-12.004c4.061-16.398 13.461-30.164 26.212-39.691l0.184-0.132c6.962-4.038 15.377-8.212 24.058-11.88l1.542-0.579h152.007c0.954 0.697 2.038 1.325 3.187 1.833l0.112 0.044c28.182 6.885 48.77 31.917 48.77 61.758 0 1.069-0.026 2.131-0.079 3.187l0.006-0.149v125.781c0 0.019 0 0.041 0 0.063 0 34.732-27.915 62.944-62.532 63.425h-0.045c-43.577 0.398-87.154 0.569-130.844 0-0.147 0.001-0.322 0.002-0.496 0.002-24.807 0-46.167-14.756-55.782-35.969l-0.156-0.385c-2.503-4.949-4.21-10.297-6.258-15.474zM972.004-64c16.937 4.328 31.067 14.332 40.584 27.824l0.149 0.222c3.619 6.42 7.435 14.296 10.807 22.403l0.571 1.547v152.007c-0.698 0.969-1.326 2.073-1.833 3.241l-0.044 0.115c-6.928 28.19-31.985 48.773-61.849 48.773-1.097 0-2.187-0.028-3.27-0.083l0.152 0.006h-125.156c-0.186 0.002-0.406 0.003-0.627 0.003-34.945 0-63.295-28.232-63.487-63.131v-0.018c-0.204-19.316-0.32-42.142-0.32-64.996s0.116-45.68 0.348-68.478l-0.028 3.483c-0.001-0.159-0.002-0.347-0.002-0.536 0-24.827 14.753-46.208 35.97-55.855l0.385-0.157c4.949-2.503 10.297-4.21 15.474-6.258zM191.716 639.204h-127.26v-382.692h127.772v127.886h127.26v127.374h-127.772zM959.317 639.488h-127.431v-127.829h-127.033v-128.057h127.431v-127.204h127.033zM575.374 320c0.324-0.006 0.706-0.009 1.089-0.009 35.095 0 63.545 28.45 63.545 63.545 0 0.363-0.003 0.726-0.009 1.088l0.001-0.055v126.976c0.003 0.223 0.004 0.486 0.004 0.75 0 35.189-28.526 63.716-63.716 63.716-0.402 0-0.802-0.004-1.202-0.011l0.060 0.001h-125.156c-0.779 0.034-1.693 0.054-2.611 0.054-35.126 0-63.602-28.475-63.602-63.602 0-0.899 0.019-1.794 0.056-2.684l-0.004 0.127v-125.156c-0.006-0.322-0.009-0.703-0.009-1.084 0-35.252 28.577-63.829 63.829-63.829 0.203 0 0.406 0.001 0.609 0.003h62.945c20.992 0 42.78 0.057 64.114 0.228z" />
<glyph unicode="&#xe915;" glyph-name="distribution-ntwk" horiz-adv-x="1041" d="M297.756 192.512l69.177 102.4c-37.052 31.935-60.365 78.926-60.365 131.362 0 66.038 36.977 123.439 91.355 152.628l0.925 0.454-45.17 114.574c-9.493-2.376-20.392-3.74-31.609-3.74-32.134 0-61.654 11.189-84.877 29.885l0.261-0.204c-25.102 19.792-42.724 48.094-48.521 80.495l-0.119 0.8c-1.295 7.015-2.035 15.088-2.035 23.334 0 74.431 60.338 134.77 134.77 134.77 50.234 0 94.049-27.484 117.228-68.236l0.348-0.666c10.469-18.862 16.632-41.365 16.632-65.307 0-50.093-26.977-93.886-67.196-117.642l-0.636-0.347 45.113-114.46c13.102 3.561 28.145 5.607 43.667 5.607 88.204 0 160.975-66.075 171.516-151.427l0.085-0.839h122.539c6.206 18.804 12.579 34.345 19.868 49.359l-1.037-2.369c23.575 40.884 67.049 67.961 116.847 67.961 74.243 0 134.428-60.186 134.428-134.428s-60.186-134.428-134.428-134.428c-63.927 0-117.433 44.623-131.067 104.42l-0.173 0.902c-1.877 8.078-4.153 11.378-12.857 11.036-34.702-0.512-69.404 0-104.107 0-5.689 0-10.183 0-11.378-8.021-13.191-82.585-83.916-144.939-169.204-144.939-27.281 0-53.071 6.38-75.961 17.728l0.998-0.448c-1.545 0.609-3.446 1.196-5.398 1.65l-0.291 0.057-69.063-102.684c27.639-24.795 44.947-60.626 44.947-100.498 0-6.328-0.436-12.554-1.279-18.65l0.080 0.706c-3.836-32.417-19.247-60.659-41.919-80.959l-0.122-0.108c-23.916-22.106-56.017-35.663-91.284-35.663-74.368 0-134.656 60.288-134.656 134.656 0 22.903 5.718 44.47 15.804 63.353l-0.353-0.724c23.545 43.041 68.511 71.743 120.181 71.743 21.192 0 41.257-4.828 59.154-13.445l-0.818 0.355zM99.783 549.092c-0.553 0.011-1.206 0.018-1.86 0.018-54.103 0-97.963-43.859-97.963-97.963s43.859-97.963 97.963-97.963c53.457 0 96.913 42.818 97.944 96.028l0.001 0.096c0.010 0.514 0.015 1.119 0.015 1.727 0 53.471-42.791 96.948-95.997 98.055l-0.103 0.002zM37.205 450.674c-0.003 0.22-0.004 0.48-0.004 0.74 0 33.744 27.355 61.099 61.099 61.099s61.099-27.355 61.099-61.099c0-33.742-27.352-61.096-61.094-61.099v0c-0.069 0-0.151 0-0.233 0-33.401 0-60.531 26.852-60.979 60.147v0.042zM582.485 741.376c-0.002-0.202-0.002-0.441-0.002-0.681 0-54.103 43.859-97.963 97.963-97.963s97.963 43.859 97.963 97.963c0 53.882-43.502 97.604-97.301 97.96h-0.034c-0.204 0.002-0.445 0.002-0.686 0.002-53.856 0-97.567-43.433-98.016-97.183v-0.043zM680.505 679.879c-0.034 0-0.074 0-0.114 0-33.881 0-61.351 27.45-61.383 61.323v0.003c0.658 33.39 27.585 60.277 60.929 60.87l0.056 0.001c33.084-0.888 59.564-27.919 59.564-61.135 0-33.036-26.194-59.953-58.946-61.116l-0.106-0.003zM665.884 201.387c-53.276-1.151-96.024-44.611-96.024-98.055 0-54.166 43.91-98.076 98.076-98.076s98.076 43.91 98.076 98.076c0 0.333-0.002 0.665-0.005 0.996v-0.051c-0.565 53.766-44.282 97.133-98.128 97.133-0.762 0-1.522-0.009-2.28-0.026l0.113 0.002zM668.388 164.523c33.845-0.033 61.269-27.477 61.269-61.326 0-33.87-27.457-61.326-61.326-61.326-33.789 0-61.196 27.327-61.326 61.086v0.012c0.032 33.863 27.377 61.328 61.191 61.554h0.021z" />
<glyph unicode="&#xe916;" glyph-name="fireplace" horiz-adv-x="1217" d="M0 101.683v-41.411l102.154-124.273h1012.408l102.195 124.273v41.411zM111.657 833.434v-648.97h110.592v478.7s20.931 110.592 371.835 110.592 406.651-110.592 406.651-110.592v-478.7h110.592v648.97h-2.703l63.119 106.824v19.743h-1120.502v-19.743l63.119-106.824zM825.426 362.025c-0.232 40.403-14.787 77.363-38.839 106.103l0.213-0.262s-26.952-83.395-55.542-63.652c-12.984 8.929-3.604 39.608-28.918 99.451-19.546 61.426-72.342 106.69-136.717 114.97l-0.826 0.087c2.281-17.275 3.583-37.249 3.583-57.528s-1.302-40.254-3.827-59.846l0.244 2.318c-5.206-41.626-29.744-76.592-64.201-96.047l-0.639-0.332c-26.952-16.056-57.631 56.934-57.631 56.934-22.175-27.874-35.624-63.554-35.758-102.37v-0.030c4.66-88.815 69.949-161.094 155.030-176.447l1.151-0.172c-0.487 5.279-0.799 11.522-0.859 17.824l-0.001 0.117c0 65.536 24.207 118.538 54.067 118.538s54.067-53.043 54.067-118.538c0-6.144-0.41-12.042-0.819-17.94 86.305 15.539 151.638 87.919 156.203 176.365l0.019 0.46z" />
<glyph unicode="&#xe917;" glyph-name="downwards-pointer" horiz-adv-x="1892" d="M1814.391 959.863l77.824-77.824-946.039-946.039-946.176 946.176 77.824 77.824 868.352-868.352z" />
<glyph unicode="&#xe918;" glyph-name="edit" d="M695.979 960c-38.315-40.277-75.776-81.408-115.712-119.979-7.68-7.424-24.747-6.912-37.547-6.997-123.989-0.512-247.979 0-371.968 0h-41.557c-0.768-12.373-1.792-21.333-1.792-30.208v-655.957c0-62.208 21.675-82.944 84.736-82.944h595.968c67.84 0 88.405 20.48 88.491 87.808 0 109.312-1.024 218.709 1.024 327.936 1.349 21.192 9.787 40.189 22.945 54.869l-0.075-0.085c32.256 34.816 68.267 65.621 103.424 98.048v-535.979c-19.651-79.284-80.737-140.569-158.408-160.19l-1.507-0.322h-704c-79.209 19.616-140.384 80.792-159.686 158.507l-0.314 1.493v768c19.496 42.88 53.12 76.504 94.81 95.514l1.19 0.486zM1024 808.021l-151.979 151.979h-32l-448.853-453.291 174.592-173.227 458.325 450.56zM330.837 448l-59.733-238.933 236.885 59.221z" />
<glyph unicode="&#xe919;" glyph-name="email" d="M511.26-64h-429.284c-1.721-0.138-3.727-0.217-5.75-0.217-42.133 0-76.288 34.155-76.288 76.288 0 1.818 0.064 3.621 0.189 5.407l-0.014-0.241v603.648c-0.056 1.35-0.088 2.935-0.088 4.527 0 44.734 25.126 83.6 62.035 103.255l0.631 0.307c19.115 10.809 37.66 22.756 56.889 32.996 7.415 3.382 12.476 10.73 12.476 19.261 0 0.992-0.068 1.967-0.201 2.922l0.013-0.111c-0.258 14.167-0.405 30.874-0.405 47.616 0 16.743 0.147 33.452 0.44 50.125l-0.035-2.509c-0.087 1.361-0.136 2.952-0.136 4.554 0 42.038 34.079 76.117 76.117 76.117 1.809 0 3.604-0.063 5.382-0.187l-0.24 0.013h599.268c1.088 0.056 2.361 0.087 3.643 0.087 42.007 0 76.060-34.053 76.060-76.060 0-1.051-0.021-2.097-0.064-3.138l0.005 0.149c0-31.744 0.683-63.488 0-95.232-0.108-0.856-0.17-1.846-0.17-2.85 0-9.998 6.111-18.568 14.802-22.179l0.159-0.059c20.252-10.752 39.822-22.756 59.392-34.759 34.813-19.901 57.896-56.81 57.896-99.109 0-1.057-0.014-2.111-0.043-3.161l0.003 0.155q0.683-304.754 0-609.508c0.024-0.714 0.038-1.554 0.038-2.396 0-41.913-33.977-75.89-75.89-75.89-1.094 0-2.182 0.023-3.264 0.069l0.155-0.005h-433.721zM56.946 508.416v-486.684c0-24.917 3.641-28.729 28.786-28.729h854.016c22.756 0 27.307 4.608 27.307 27.477v470.244c0 5.006-0.512 9.956-0.91 17.067-7.737-4.324-13.255-7.282-18.66-10.468-110.308-64.512-220.217-129.707-331.036-193.422-29.671-18.629-65.741-29.679-104.391-29.679s-74.72 11.050-105.221 30.164l0.83-0.485c-80.441 45.966-160.085 93.412-240.071 140.174zM513.138 903.111h-298.894c-19.968 0-25.429-5.291-25.429-24.86v-367.73c-0.085-0.704-0.133-1.52-0.133-2.347 0-8.096 4.633-15.109 11.392-18.534l0.118-0.054q115.826-67.186 231.14-135.339c22.787-14.907 50.695-23.775 80.675-23.775 30.237 0 58.367 9.021 81.845 24.518l-0.557-0.345q113.778 67.356 228.636 133.746c8.157 3.968 13.679 12.193 13.679 21.708 0 0.91-0.051 1.809-0.149 2.693l0.010-0.109c-0.398 121.116 0 242.233 0 363.349 0 22.756-4.437 27.022-27.648 27.022zM131.243 702.009c-64.569-32.142-78.45-42.382-73.614-100.693 9.631-34.601 37.905-60.707 73.049-67.044l0.565-0.085zM892.757 530.318c16.668 9.785 31.118 17.579 44.828 26.453 18.839 14.132 30.898 36.416 30.898 61.516 0 16.166-5.002 31.164-13.543 43.53l0.167-0.256c-17.535 17.173-38.297 31.131-61.281 40.87l-1.297 0.488zM575.090 628.508v-43.918c-0.27-1.319-0.424-2.836-0.424-4.388 0-12.662 10.264-22.926 22.926-22.926 10.415 0 19.209 6.945 22.001 16.457l0.041 0.162c8.661 15.861 13.753 34.743 13.753 54.815 0 28.384-10.185 54.389-27.099 74.56l0.147-0.18c-20.605 28.221-53.574 46.348-90.777 46.348-9.808 0-19.322-1.26-28.388-3.627l0.78 0.173c-47.473-8.006-84.561-44.499-93.357-90.997l-0.111-0.708c-1.913-7.996-3.011-17.176-3.011-26.613 0-64.629 51.467-117.238 115.652-119.076l0.17-0.004c16.668-0.967 27.193-9.728 27.193-22.756s-11.378-22.756-28.444-22.357c-88.488 3.937-158.736 76.632-158.736 165.734 0 0.814 0.006 1.627 0.018 2.439l-0.001-0.123c2.332 89.301 75.278 160.803 164.925 160.803 80.649 0 147.783-57.87 162.14-134.35l0.16-1.023c1.821-8.981 2.863-19.304 2.863-29.87 0-29.108-7.909-56.368-21.695-79.75l0.4 0.734c-11.574-20.518-33.229-34.146-58.067-34.146-22.479 0-42.351 11.162-54.375 28.247l-0.141 0.211c-3.223 5.466-9.082 9.076-15.783 9.076-1.65 0-3.248-0.219-4.768-0.629l0.128 0.029c-3.852-0.694-8.285-1.090-12.812-1.090-27.936 0-52.344 15.106-65.501 37.595l-0.194 0.359c-7.314 11.748-11.65 26.008-11.65 41.28 0 43.609 35.352 78.962 78.962 78.962 6.393 0 12.608-0.76 18.56-2.194l-0.539 0.11c4.858-1.452 10.647-2.632 16.587-3.312l0.479-0.045c21.276-1.252 27.534-7.054 28.444-28.444 0.455-15.132 0-30.265 0-45.511zM530.318 627.598c0.289 2.715 0.455 5.865 0.455 9.054 0 4.513-0.331 8.948-0.969 13.283l0.059-0.492c-1.481 5.558-5.237 10.040-10.183 12.465l-0.114 0.050c-2.608 0.729-5.603 1.148-8.696 1.148-16.459 0-30.146-11.867-32.973-27.511l-0.031-0.204c-0.405-1.997-0.636-4.292-0.636-6.641 0-16.624 11.595-30.541 27.139-34.103l0.235-0.045c17.067-4.039 25.657 2.389 25.657 19.854 0.284 4.38 0.284 8.761 0.284 13.141z" />
<glyph unicode="&#xe91a;" glyph-name="entrance" horiz-adv-x="839" d="M798.208 919.609h-613.831v-224.484h-41.017v264.875h695.751v-1024h-695.808v265.045h39.822v-223.687h615.026zM0 427.236h524.914l-129.82-128.284 27.136-27.477 176.811 176.754-174.82 175.104-31.175-28.444 127.374-126.35h-520.42z" />
<glyph unicode="&#xe91b;" glyph-name="exhaust" horiz-adv-x="468" d="M468.025-5.973v-24.007c-4.867-16.52-17.613-29.267-33.78-34.044l-0.353-0.089h-17.977c-19.383 6.006-33.27 23.643-33.564 44.567v0.034c-0.35 22.635-18.782 40.85-41.467 40.85-0.202 0-0.403-0.001-0.604-0.004h0.030c-8.192 0.149-16.076 0.723-23.834 1.704l1.079-0.111c-66.918 8.777-120.878 55.906-139.528 118.279l-0.305 1.188c-0.746 4.047-4.247 7.073-8.455 7.073-0.53 0-1.049-0.048-1.553-0.14l0.053 0.008c-12.629-0.341-25.316 0-37.945 0-0.788-0.053-1.709-0.083-2.636-0.083-23.156 0-41.927 18.771-41.927 41.927 0 0.89 0.028 1.773 0.082 2.649l-0.006-0.12c-0.284 23.95 0 47.957 0 71.908 0 3.584-0.284 7.111-0.512 11.378h-41.643c-0.537-0.027-1.165-0.042-1.798-0.042-11.663 0-22.122 5.153-29.224 13.307l-0.040 0.047c-4.121 5.54-8.050 11.816-11.468 18.399l-0.365 0.773v532.025c6.384 19.603 24.495 33.522 45.858 33.522 3.218 0 6.362-0.316 9.402-0.918l-0.306 0.051c9.5-0.91 19.172 0 30.151 0v40.676c-0.071 0.885-0.111 1.916-0.111 2.956 0 11.284 4.734 21.463 12.324 28.658l0.018 0.017c6.007 4.584 12.782 8.942 19.898 12.746l0.81 0.395h17.977c20.155-5.356 34.765-23.439 34.765-44.934 0-2.695-0.23-5.337-0.671-7.907l0.039 0.275c-0.74-10.524 0-21.106 0-32.256h85.333v41.131c-0.046 0.71-0.072 1.54-0.072 2.375 0 11.794 5.209 22.371 13.451 29.556l0.047 0.040c5.528 4.074 11.803 7.984 18.375 11.399l0.796 0.377h20.025c19.471-6.629 33.228-24.754 33.228-46.093 0-3.215-0.312-6.357-0.908-9.397l0.050 0.307c-0.91-9.728 0-19.627 0-30.265h37.319c1.53 0.192 3.302 0.301 5.098 0.301 23.91 0 43.292-19.383 43.292-43.292 0-1.851-0.116-3.674-0.341-5.464l0.022 0.213v-500.622c0.202-1.568 0.317-3.382 0.317-5.222 0-23.816-19.306-43.122-43.122-43.122-1.877 0-3.725 0.12-5.538 0.352l0.215-0.022h-37.262v-82.375c0.096-1.068 0.151-2.31 0.151-3.565 0-23.25-18.848-42.098-42.098-42.098-1.255 0-2.497 0.055-3.724 0.162l0.159-0.011h-27.42c0.932-2.178 1.808-3.935 2.767-5.638l-0.15 0.29c1.432-2.178 2.798-4.033 4.251-5.813l-0.098 0.124c16.158-19.69 40.494-32.153 67.742-32.153 0.484 0 0.968 0.004 1.451 0.012l-0.073-0.001c52.909-0.972 97.798-34.275 115.817-80.942l0.294-0.864c3.3-9.728 5.348-20.196 8.192-30.436zM339.57 363.292v425.358h-254.236c0-3.812-0.455-6.77-0.455-9.728v-403.911c0-9.671 1.877-13.084 12.516-12.971 64.91 0.796 129.877 0.796 194.844 1.024zM170.667 235.463h84.196v40.619h-84.196z" />
<glyph unicode="&#xe91c;" glyph-name="expansion-tank" horiz-adv-x="1215" d="M456.704 625.55h-168.732c-0.529 0.007-1.153 0.011-1.779 0.011-72.45 0-132.923-51.282-147.101-119.527l-0.169-0.974c-2.099-9.872-3.301-21.215-3.301-32.839 0-0.275 0.001-0.55 0.002-0.824v0.042q-0.341-137.899 0-275.797c-0.017-0.838-0.027-1.827-0.027-2.817 0-82.569 66.935-149.504 149.504-149.504 1.049 0 2.096 0.011 3.141 0.032l-0.156-0.003h636.245c1.459-0.051 3.173-0.080 4.894-0.080 82.914 0 150.176 67.011 150.583 149.829v0.039c0 2.788 0.398 5.689 0.683 9.387h130.844v-207.929c0.117-1.332 0.184-2.881 0.184-4.446 0-29.722-24.095-53.817-53.817-53.817-1.547 0-3.078 0.065-4.591 0.193l0.198-0.013q-544.882 0-1089.764-0.569c-1.285-0.099-2.783-0.156-4.293-0.156-32.77 0-59.335 26.565-59.335 59.335 0 1.436 0.051 2.86 0.151 4.27l-0.011-0.189c0.91 224.54 0.455 449.422 0.455 673.735-0.286 2.101-0.449 4.53-0.449 6.997 0 30.256 24.528 54.784 54.784 54.784 2.324 0 4.613-0.145 6.861-0.425l-0.268 0.027h344.69c0.466 0.028 1.010 0.044 1.558 0.044 7.339 0 14.005-2.877 18.934-7.564l-0.012 0.011c6.978-5.268 14.88-10.409 23.133-14.997l1.045-0.533c2.503-1.707 5.689-4.779 5.689-7.282 0.398-25.543 0.228-51.257 0.228-78.45zM720.668 742.002c11.402 1.1 21.805 3.108 31.837 5.992l-1.231-0.303c19.017 7.574 32.213 25.827 32.213 47.162 0 0.42-0.005 0.838-0.015 1.255l0.001-0.062c0.135 2.499 0.211 5.424 0.211 8.368 0 42.108-15.694 80.55-41.552 109.797l0.153-0.177c-20.963 28.027-54.069 45.974-91.367 45.974-2.24 0-4.465-0.065-6.673-0.192l0.305 0.014c-27.364-1.195-54.841 0.512-82.204-0.512-13.589-0.336-26.466-2.957-38.4-7.491l0.797 0.266c-56.363-27.338-94.535-84.127-94.535-149.83 0-1.326 0.016-2.648 0.046-3.966l-0.004 0.196c0-0.086-0.001-0.187-0.001-0.289 0-30.319 24.579-54.898 54.898-54.898 0.24 0 0.48 0.002 0.72 0.005h-0.036c2.332 0 4.665-0.683 7.509-1.138v-154.738h-204.743c-1.347 0.059-2.927 0.092-4.514 0.092-61.173 0-110.763-49.59-110.763-110.763 0-1.453 0.028-2.899 0.083-4.338l-0.006 0.207c0-91.534 1.252-183.068-0.398-274.546-0.005-0.407-0.008-0.888-0.008-1.369 0-64.22 52.061-116.281 116.281-116.281 0.323 0 0.645 0.001 0.968 0.004h-0.049c211.627 1.422 423.31 0.569 634.937 0.512 1.903-0.114 4.128-0.18 6.369-0.18 62.398 0 112.981 50.583 112.981 112.981 0 2.164-0.061 4.315-0.181 6.449l0.013-0.296v40.562h144.27c20.935 0 26.169 5.234 26.169 26.51v134.258c0 18.432-8.021 26.567-26.34 26.624h-146.091v42.098c0.074 1.523 0.116 3.308 0.116 5.103 0 62.084-50.329 112.412-112.412 112.412-1.641 0-3.274-0.035-4.899-0.105l0.232 0.008h-204.686zM1002.212 177.209c-6.44-33.712-35.688-58.847-70.806-58.847-1.568 0-3.125 0.050-4.668 0.149l0.211-0.011h-636.018c-1.741-0.145-3.769-0.227-5.816-0.227-41.222 0-74.638 33.417-74.638 74.638 0 1.841 0.067 3.667 0.198 5.475l-0.014-0.242v119.467c-0.027 0.39-0.043 0.846-0.043 1.305 0 7.021 3.634 13.193 9.124 16.739l0.078 0.047c20.983 15.763 47.471 25.244 76.172 25.244 34.538 0 65.87-13.728 88.837-36.026l-0.031 0.030c29.723-29.82 70.466-48.64 115.602-49.83l0.223-0.005c1.608-0.056 3.498-0.089 5.396-0.089 45.706 0 87.054 18.657 116.844 48.771l0.014 0.015c19.483 19.506 45.368 32.613 74.234 35.901l0.575 0.053c4.734 0.623 10.208 0.979 15.766 0.979 35.671 0 67.919-14.657 91.050-38.276l0.022-0.022c29.225-29.757 69.885-48.199 114.852-48.199 6.94 0 13.778 0.439 20.487 1.292l-0.797-0.083c26.79 5.041 49.901 11.302 72.271 19.139l-3.435-1.048c-1.65-37.262-0.91-77.141-5.689-116.338zM210.318 486.002c4.31 36.483 35.053 64.511 72.342 64.511 1.007 0 2.010-0.020 3.008-0.061l-0.143 0.005h638.407c1.641 0.127 3.554 0.2 5.484 0.2 41.599 0 75.321-33.722 75.321-75.321 0-1.591-0.049-3.171-0.147-4.738l0.011 0.215v-114.859c0.025-0.365 0.039-0.791 0.039-1.221 0-6.589-3.354-12.394-8.447-15.803l-0.069-0.043c-21.058-15.805-47.634-25.309-76.429-25.309-34.377 0-65.591 13.546-88.594 35.592l0.045-0.043c-22.769 22.847-51.716 39.524-84.123 47.313l-1.21 0.246c-11.026 2.773-23.683 4.363-36.712 4.363-41.797 0-79.769-16.373-107.854-43.055l0.067 0.064c-18.595-19.274-42.182-33.612-68.681-40.936l-1.065-0.251c-8.8-2.181-18.903-3.433-29.298-3.433-35.529 0-67.643 14.618-90.657 38.168l-0.024 0.024c-29.027 29.781-69.534 48.254-114.355 48.254-7.823 0-15.515-0.563-23.037-1.65l0.858 0.102c-25.379-5.111-47.118-11.259-68.167-18.85l3.314 1.044c-0.398 33.849-2.105 69.803 0.341 105.472zM532.594 588.402v154.453h148.48v-154.453zM1214.635 467.854c0 70.542 0.455 141.084 0 211.627-0.394 29.452-24.361 53.176-53.869 53.176-0.742 0-1.48-0.015-2.215-0.045l0.105 0.003h-355.556c-0.377 0.025-0.816 0.039-1.259 0.039-3.27 0-6.36-0.771-9.098-2.14l0.118 0.053c-11.833-7.282-23.268-15.132-35.1-22.756v-81.806h172.316c0.394 0.004 0.861 0.006 1.327 0.006 67.109 0 123.914-44.116 142.997-104.928l0.287-1.062c3.851-14.92 7.21-33.246 9.37-51.938l0.187-1.993h130.105c0.144 0.446 0.228 0.96 0.228 1.493 0 0.015 0 0.030 0 0.046v-0.002z" />
<glyph unicode="&#xe91d;" glyph-name="fittings" horiz-adv-x="1185" d="M807.083 909.255v-114.517c0-79.644 0-158.948-0.398-238.478-0.158-9.244-3.389-17.704-8.712-24.433l0.065 0.085c-20.219-22.954-32.681-53.165-33.052-86.28l-0.001-0.077c0.001-0.317 0.001-0.693 0.001-1.068 0-171.465-93.363-321.124-232.026-400.913l-2.243-1.19c-46.909-29.132-102.278-49.535-161.597-57.453l-2.13-0.232c-0.398 6.599-1.081 12.231-1.081 17.863 0 109.056 0 218.112 0.284 327.168 0.043 8.417 3.325 16.058 8.663 21.749l-0.016-0.017c28.375 24.837 46.196 61.125 46.196 101.576 0 0.29-0.001 0.579-0.003 0.869v-0.044c0.794 167.616 90.881 314.015 225.105 394.154l2.109 1.167c45.497 28.895 98.965 49.935 156.273 59.713l2.561 0.361zM1035.548 524.8v47.502h149.447v345.998h-150.13v41.7h-178.972v-435.2zM137.899-22.244v-41.813h178.631v435.029h-179.541v-48.071h-137.045v-344.974z" />
<glyph unicode="&#xe91e;" glyph-name="fuel-tank" horiz-adv-x="1040" d="M89.783 513.556v339.82h684.87v-160.598c-26.268-4.311-52.306-6.553-77.195-13.105-86.388-22.217-156.411-79.473-195.271-155.332l-0.792-1.702c-3.276-6.15-6.093-9.829-14.197-9.772q-193.879 0.517-387.758 0c-2.817 0.23-5.633 0.517-9.657 0.69zM114.442 818.198v-230.838c0-3.276 1.265-9.197 2.414-9.312 3.825-0.545 8.242-0.857 12.732-0.857s8.907 0.311 13.231 0.914l-0.5-0.057c3.046 0.517 5.748 6.553 7.587 10.519 24.199 51.732 47.823 103.463 72.539 154.793 11.956 24.774 3.621 50.065 6.898 75.183zM466.505 380.72c2.115-167.342 136.091-302.706 302.685-307.048l0.405-0.008v-32.074h-684.698v339.13zM228.999 76.768v64.147c-0.196 2.257-0.833 4.327-1.824 6.179l0.042-0.086q-41.96 93.692-84.208 187.211c-1.558 2.861-4.217 4.956-7.394 5.732l-0.079 0.016c-2.991 0.205-6.483 0.322-10.001 0.322s-7.010-0.117-10.471-0.347l0.47 0.025v-263.544zM775.056 117.003c-146.196 0.197-264.636 118.757-264.636 264.981 0 146.345 118.636 264.981 264.981 264.981s264.981-118.636 264.981-264.981c0-0.202 0-0.404-0.001-0.606v0.031c-0.555-146.019-119.055-264.176-265.152-264.176 0 0-0.001 0-0.001 0v0zM775.688 600.982c-0.221 0.001-0.484 0.001-0.746 0.001-121.044 0-219.17-98.126-219.17-219.17s98.126-219.17 219.17-219.17c120.801 0 218.776 97.732 219.169 218.441v0.038c0.003 0.393 0.004 0.857 0.004 1.323 0 120.662-97.686 218.508-218.287 218.767h-0.025zM427.821 12.678h-388.735c-0.327 0.010-0.712 0.016-1.099 0.016-21.047 0-38.109-17.062-38.109-38.109 0-5.296 1.080-10.339 3.032-14.922l-0.094 0.249c6.095-14.344 20.064-24.22 36.341-24.22 1.372 0 2.727 0.070 4.063 0.207l-0.168-0.014h770.112c0.758-0.053 1.642-0.083 2.534-0.083 16.414 0 30.447 10.192 36.116 24.593l0.091 0.263c1.618 4.087 2.557 8.823 2.557 13.777 0 21.206-17.191 38.396-38.396 38.396-0.96 0-1.913-0.035-2.855-0.105l0.126 0.007h-385.516zM432.19 882.805h387.815c0.408-0.016 0.887-0.025 1.368-0.025 20.73 0 37.534 16.805 37.534 37.534 0 0.656-0.017 1.308-0.050 1.955l0.004-0.091c-0.381 20.848-17.372 37.603-38.275 37.603-1.318 0-2.62-0.067-3.904-0.197l0.161 0.013h-771.262c-0.62 0.036-1.345 0.056-2.074 0.056-18.088 0-33.272-12.433-37.473-29.219l-0.056-0.266c-0.717-2.768-1.128-5.945-1.128-9.218 0-21.111 17.113-38.224 38.224-38.224 0.862 0 1.717 0.029 2.565 0.085l-0.115-0.006h386.723zM472.425 484.643h-428.223c-0.466 0.021-1.013 0.032-1.562 0.032-20.793 0-37.649-16.856-37.649-37.649 0-2.76 0.297-5.45 0.861-8.041l-0.045 0.249c3.68-18.105 19.47-31.539 38.398-31.539 1.783 0 3.538 0.119 5.258 0.35l-0.201-0.022h417.532l16.324 76.85zM772.182 535.858c-31.269-62.48-62.71-124.846-93.577-187.556-4.773-9.567-7.566-20.839-7.566-32.764 0-20.943 8.616-39.874 22.497-53.441l0.014-0.014c21.211-20.642 50.212-33.371 82.187-33.371 28.486 0 54.612 10.103 74.991 26.921l-0.2-0.161c17.794 14.276 29.088 36.019 29.088 60.4 0 12.914-3.169 25.088-8.771 35.786l0.203-0.425q-22.417 43.799-44.489 87.771c-16.784 33.396-33.453 66.849-50.984 101.911-1.371-1.38-2.555-2.948-3.508-4.662l-0.055-0.108z" />
<glyph unicode="&#xe91f;" glyph-name="hamburger" horiz-adv-x="1164" d="M0-16.223h1164.277v-47.777c-4.119 0.339-8.237 0.921-12.356 0.921h-1139.565c-4.119 0-8.237-0.581-12.356-0.921zM1164.277 959.419c-4.506 0-9.061 0.678-13.567 0.678h-1137.142c-4.506 0-9.061-0.436-13.567-0.678v-45.499h1164.277zM1164.277 634.237c-4.555 0-9.061 0.339-13.616 0.339h-891.572q-129.472 0-258.944-0.388v-45.499c4.167 0 8.334-0.388 12.453-0.388h925.782q112.997 0 226.043 0.436zM1164.277 309.055h-1164.277v-45.499c5.669-0.291 11.29-0.775 16.959-0.775h1051.959c31.786 0 63.573 0.533 95.359 0.775z" />
<glyph unicode="&#xe920;" glyph-name="heat-exchanger" horiz-adv-x="1416" d="M1341.895 33.394h-121.23v-97.109h-96.711v1024h96.256v-96.313h96.711v-97.394h-95.346v-488.562h46.706v-97.451h-46.876v-49.038c2.763-0.332 5.963-0.521 9.207-0.521 0.423 0 0.846 0.003 1.267 0.010l-0.064-0.001c23.438 1.764 43.918 1.479 57.742-24.576 11.061-15.224 28.806-25.010 48.837-25.010 1.171 0 2.335 0.033 3.49 0.099l-0.16-0.007zM193.593 960.114h-97.28v-96.711h-96.313v-97.451h95.858v-635.164h-95.687v-97.963h97.166v-96.711h96.256zM977.294 815.275v48.697h95.744v47.047h-828.302v-48.412h681.643v-48.981h-682.041v-47.218h828.985v48.412zM1072.64 668.729v47.332h-828.075v-48.356h95.687v-49.152h-95.915v-47.332h828.416v48.811h-682.268v48.469zM244.224 325.746v-47.445h828.53v48.811h-388.779v48.526h389.063v47.445h-828.416v-48.299h388.949v-49.038zM244.224 82.887h828.53v48.811h-315.506v48.526h315.79v47.502h-828.473v-48.868h462.052v-47.957h-462.393zM1415.851 540.217c0 21.788-8.647 30.151-30.606 30.322h-36.58c-21.788 0-30.379-8.704-30.436-30.492v-376.661c0-24.86 7.737-32.427 32.882-32.484h33.564c22.756 0 31.232 8.249 31.232 31.118v377.97zM1072.754 473.714v46.99h-828.53v-46.99zM1072.754-14.791v46.99h-828.53v-46.99z" />
<glyph unicode="&#xe921;" glyph-name="heating-station" horiz-adv-x="1353" d="M1049.543 77.483l-98.247 42.78c0.006-0.648 0.010-1.414 0.010-2.181 0-72.071-31.736-136.73-81.995-180.764l-0.276-0.237-43.634 41.586c11.89 14.393 23.097 26.34 32.484 39.822 18.962 24.723 30.385 56.095 30.385 90.134 0 7.68-0.582 15.225-1.703 22.592l0.103-0.826c-1.79 7.070-6.711 12.72-13.163 15.474l-0.149 0.056c-39.822 9.102-79.644 17.067-119.467 24.69-13.653 2.674-12.117-6.656-12.060-15.929 0.722-10.474 1.134-22.7 1.134-35.022 0-18.298-0.908-36.383-2.68-54.214l0.181 2.253c-10.088-52.094-37.014-96.677-74.783-128.936l-0.31-0.258c-4.665 3.413-8.647 5.973-12.345 8.988-33.451 27.25-33.337 27.136-7.282 60.587 23.811 29.179 38.236 66.833 38.236 107.856 0 15.494-2.058 30.507-5.915 44.782l0.276-1.199c-2.788 11.833-8.533 16.668-20.309 15.417-35.669-3.812-71.339-7.339-107.008-11.378-9.785-1.138-13.483-5.689-12.117-17.579 1.318-9.293 2.071-20.027 2.071-30.937 0-62.42-24.639-119.084-64.723-160.799l0.074 0.077c-4.309-5.222-8.543-11.030-12.425-17.086l-0.432-0.721c-4.874 2.919-9.033 5.811-12.988 8.949l0.245-0.188c-10.468 10.183-26.965 19.456-29.013 31.232-1.764 9.956 12.8 23.268 21.106 34.133 21.699 26.931 34.83 61.559 34.83 99.254 0 11.815-1.29 23.329-3.737 34.408l0.195-1.054c-65.915-18.889-122.543-41.316-176.367-68.486l5.701 2.609c-12.117 26.738-23.95 52.508-35.556 78.45l-265.045 592.043c-4.665 10.411-3.982 15.303 6.485 21.447 133.367 81.889 289.235 142.754 455.714 173.268l8.329 1.267c60.413 10.472 129.987 16.457 200.959 16.457 33.687 0 67.059-1.349 100.065-3.995l-4.348 0.28c213.362-18.156 407.918-84.88 576.998-188.986l-5.663 3.244c11.947-6.997 14.279-12.231 8.42-25.259q-146.148-324.949-291.271-650.354c-2.56-5.689-5.461-10.923-8.988-17.749zM536.462 435.883c-9.5-0.512-14.791-0.967-20.139-0.967-27.193 0-30.606-2.731-37.376-29.241-2.395-11.949-3.765-25.686-3.765-39.742 0-34.069 8.051-66.258 22.353-94.768l-0.554 1.22c1.593-4.039 11.378-7.396 17.067-6.77 33.166 3.641 66.162 9.159 99.328 12.857 13.369 1.479 17.749 4.722 13.938 19.342-6.412 21.013-10.104 45.164-10.104 70.178 0 18.61 2.043 36.742 5.918 54.186l-0.309-1.654c0.23 2.251 0.361 4.865 0.361 7.509s-0.131 5.258-0.387 7.835l0.026-0.326h-48.697l81.579 116.224 85.333-115.826c-9.387-0.455-14.677-0.91-19.968-0.967-27.25 0-29.468-2.048-36.864-27.534-2.969-12.571-4.672-27.005-4.672-41.837 0-26.876 5.59-52.446 15.671-75.612l-0.475 1.224c1.479-4.324 9.728-8.192 15.246-8.988 21.049-3.072 42.268-4.608 63.431-6.997s42.724-5.291 67.641-8.363c-11.421 30.801-18.029 66.38-18.029 103.503 0 22.477 2.423 44.389 7.021 65.487l-0.37-2.022-50.404 2.219 81.522 115.655 86.13-116.736h-18.261c-30.663-0.398-34.133-3.47-41.074-34.133-1.491-9.813-2.343-21.136-2.343-32.658 0-33.371 7.146-65.073 19.991-93.659l-0.581 1.446c4.216-20.698 20.469-36.664 40.988-40.401l0.313-0.047c12.926-2.888 24.319-7.059 34.956-12.5l-0.823 0.382c11.776-5.348 17.692-1.536 22.357 9.557 9.956 23.552 20.764 46.763 31.232 70.087q88.576 197.632 177.38 395.093c6.315 13.938 3.698 20.708-9.899 26.453-17.067 7.054-32.882 15.986-49.493 23.495-133.598 63.404-290.028 101.342-455.085 103.53l-0.765 0.008c-60.956-0.011-120.982-3.938-179.854-11.544l6.969 0.735c-138.938-18.686-264.69-59.758-378.976-119.718l6.24 2.982c-12.971-6.428-14.108-13.084-8.363-25.657 29.412-64.228 57.97-128.91 86.812-193.422 39.822-89.486 80.612-178.802 120.036-268.629 6.827-15.531 13.881-18.432 28.786-11.378 12.205 5.877 26.532 11.043 41.437 14.745l1.571 0.33c15.189 3.755 17.408 10.24 12.174 24.633-12.806 30.306-20.248 65.543-20.248 102.517 0 18.803 1.925 37.157 5.588 54.876l-0.302-1.745c0.223 2.234 0.349 4.828 0.349 7.452s-0.127 5.219-0.375 7.778l0.025-0.325h-48.754l81.636 115.996z" />
<glyph unicode="&#xe922;" glyph-name="building" horiz-adv-x="1037" d="M1013.266 566.4l-135.408 100.195v190.468h-167.069v-66.835l-190.352 140.814-1.313 1.776-0.541-0.425-0.579 0.425-1.313-1.776-492.83-364.603h-4.517v-117.146h73.785v-493.949h849.942l0.965 493.949h73.785v117.146zM599.203 28.859v138.652h-168.344v-138.652h-271.628v450.86l359.313 265.798 359.313-265.798v-450.86zM242.283 485.742h135.331v-110.118h-135.331zM450.28 485.742h135.331v-110.118h-135.331zM657.042 485.742h135.331v-110.118h-135.331zM242.283 333.847h135.331v-110.118h-135.331zM450.28 333.847h135.331v-110.118h-135.331zM657.042 333.847h135.331v-110.118h-135.331z" />
<glyph unicode="&#xe923;" glyph-name="hydraulic-switch" horiz-adv-x="768" d="M152.121 960h463.986c1.031-0.638 2.223-1.163 3.487-1.513l0.097-0.023c84.511-11.974 148.796-83.831 148.796-170.704 0-1.167-0.012-2.332-0.035-3.493l0.003 0.174c-0.91-226.304 0-452.608-0.341-678.855-0.379-75.805-50.287-139.853-119.001-161.465l-1.205-0.327c-10.411-3.186-21.163-5.234-31.801-7.794h-463.986c-1.596 0.677-3.497 1.284-5.462 1.721l-0.227 0.042c-82.657 11.916-145.582 81.89-146.375 166.716l-0.001 0.082q-0.398 343.438 0 686.876c0.689 75.088 50.024 138.472 117.98 160.208l1.202 0.332c10.809 3.3 21.902 5.404 32.882 8.021zM597.618 448v252.928c0.029 0.827 0.045 1.798 0.045 2.774 0 47.317-38.358 85.675-85.675 85.675-0.956 0-1.908-0.016-2.857-0.047l0.138 0.004h-249.97c-1.014 0.043-2.205 0.068-3.4 0.068-47.128 0-85.333-38.205-85.333-85.333 0-0.964 0.016-1.924 0.048-2.881l-0.004 0.139v-505.913c-0.050-1.091-0.078-2.37-0.078-3.655 0-47.128 38.205-85.333 85.333-85.333 1.228 0 2.45 0.026 3.665 0.077l-0.174-0.006h245.931c1.788-0.132 3.873-0.207 5.975-0.207 47.788 0 86.528 38.74 86.528 86.528 0 2.215-0.083 4.41-0.247 6.583l0.017-0.289q-0.171 124.473 0.057 248.889zM256.796 192.74h254.805v254.805h-254.805z" />
<glyph unicode="&#xe924;" glyph-name="list" d="M219.505 815.534v144.548h804.086v-144.466zM1023.631 595.743v144.466h-804.086v-144.466zM219.955 520.212v-144.425h804.086v144.425zM1023.631 156.242v144.384h-804.086v-144.466zM1023.631 80.835h-803.799v-144.753h803.676zM144.425 960.082h-144.425v-144.835h144.425zM144.425 740.332h-144.425v-144.835h144.425zM144.425 520.54h-144.425v-144.835h144.425zM0.287 156.283h144.425v144.835h-144.384zM0.287-63.549h144.671v144.835h-144.63z" />
<glyph unicode="&#xe925;" glyph-name="location" horiz-adv-x="859" d="M429.124 960c0.441 0.002 0.964 0.003 1.486 0.003 210.721 0 385.871-152.294 421.388-352.819l0.379-2.58c4.367-22.652 6.866-48.703 6.866-75.338 0-118.193-49.2-224.895-128.237-300.742l-0.144-0.137c-92.911-94.686-187.665-187.529-281.6-281.259-14.746-14.746-24.235-14.814-38.844 0-88.132 88.132-175.991 176.538-264.533 264.26-28.242 26.373-53.494 55.264-75.625 86.521l-1.175 1.748c-42.874 65.581-68.379 145.893-68.379 232.161 0 165.69 94.084 309.405 231.742 380.637l2.389 1.124c55.791 29.259 121.886 46.428 191.991 46.428 0.807 0 1.614-0.002 2.42-0.007l-0.124 0.001zM430.285 732.194c-0.207 0.001-0.451 0.001-0.696 0.001-111.072 0-201.114-90.042-201.114-201.114s90.042-201.114 201.114-201.114c109.415 0 198.423 87.376 201.054 196.158l0.005 0.244c0.040 1.504 0.064 3.275 0.064 5.052 0 110.786-89.73 200.614-200.479 200.772h-0.015z" />
<glyph unicode="&#xe926;" glyph-name="maintenance" horiz-adv-x="974" d="M735.2 533.078c-11.044 2.307-32.791 6.354-54.197 11.611-1.593 0.739-3.458 1.169-5.424 1.169-3.837 0-7.29-1.642-9.696-4.261l-0.009-0.010q-176.018-175.791-352.15-351.507c-3.043-3.426-4.902-7.963-4.902-12.934 0-0.333 0.008-0.664 0.025-0.992l-0.002 0.046c0.76-5.458 1.195-11.764 1.195-18.171 0-76.659-62.144-138.803-138.803-138.803-3.108 0-6.193 0.102-9.25 0.303l0.416-0.022c-72.461 4.659-130.157 61.963-135.409 133.829l-0.028 0.473c-0.206 2.836-0.324 6.144-0.324 9.479 0 69.186 50.577 126.558 116.775 137.161l0.794 0.105c8.436 0.622 18.275 0.977 28.197 0.977 4.714 0 9.41-0.080 14.086-0.239l-0.68 0.018c4.581 0.059 8.769 1.69 12.062 4.377l-0.035-0.028q176.964 175.64 353.663 351.545c5.257 5.219 4.198 9.304 2.307 15.128-6.744 19.385-10.639 41.729-10.639 64.983 0 93.756 63.317 172.725 149.523 196.477l1.431 0.336c15.766 4.463 33.873 7.029 52.58 7.029 7.35 0 14.608-0.396 21.754-1.168l-0.885 0.078c0.054 0.001 0.119 0.001 0.183 0.001 8.612 0 15.984-5.311 19.019-12.836l0.049-0.138c0.913-2.254 1.443-4.868 1.443-7.605 0-6.337-2.839-12.011-7.314-15.819l-0.029-0.024c-34.039-33.774-67.813-68.078-102.116-101.473-6.062-5.099-9.888-12.688-9.888-21.171 0-3.481 0.644-6.812 1.82-9.88l-0.064 0.189c5.219-17.095 8.85-34.682 14.145-51.739 0.716-1.761 1.131-3.805 1.131-5.945 0-5.155-2.41-9.748-6.165-12.712l-0.034-0.026q-207.712-207.183-415.084-414.744c-18.23-18.23-36.611-36.346-54.613-54.802-2.083-2.895-5.443-4.758-9.237-4.758-2.024 0-3.924 0.53-5.57 1.459l0.057-0.029c-7.926 3.327-17.137 5.259-26.8 5.259-22.433 0-42.432-10.416-55.427-26.675l-0.109-0.142c-9.717-12.148-15.593-27.736-15.593-44.697 0-39.687 32.173-71.86 71.86-71.86 6.567 0 12.927 0.881 18.971 2.531l-0.504-0.117c30.429 8.187 52.532 35.343 52.949 67.728v0.047c0.007 0.346 0.010 0.753 0.010 1.162 0 7.882-1.39 15.44-3.938 22.441l0.145-0.456c-0.829 1.758-1.313 3.82-1.313 5.994 0 4.725 2.286 8.916 5.813 11.528l0.039 0.027q221.744 221.29 443.147 442.92c9.607 9.644 18.91 19.591 29.084 28.668 2.559 2.050 5.844 3.29 9.419 3.29 0.841 0 1.665-0.069 2.469-0.2l-0.088 0.012c19.137-4.539 38.161-9.531 56.996-15.128 2.543-0.932 5.478-1.471 8.54-1.471 7.794 0 14.773 3.493 19.455 8.999l0.030 0.036c33.812 34.039 68.078 67.813 101.927 101.738 3.893 5.112 9.983 8.379 16.836 8.379 1.811 0 3.569-0.228 5.246-0.657l-0.146 0.032c8.578-2.068 14.891-9.568 15.128-18.582l0.001-0.026c0.858-6.945 1.348-14.984 1.348-23.137 0-58.734-25.414-111.531-65.845-147.997l-0.177-0.157c-37.028-33.86-86.546-54.604-140.908-54.604-3.050 0-6.085 0.065-9.104 0.195l0.431-0.015zM643.030 433.231l-9.342 13.124-166.071-167.698 11.649-13.389 14.183 18.608 36.989-35.249-16.868-17.625c1.664-1.967 2.723-3.366 3.782-4.614q126.473-126.511 253.059-252.946c8.807-9.678 21.453-15.729 35.513-15.729 14.38 0 27.282 6.329 36.072 16.354l0.047 0.055c30.559 30.257 60.816 60.74 91.224 91.148 12.299 9.273 20.166 23.855 20.166 40.275 0 16.27-7.724 30.736-19.706 39.93l-0.12 0.088q-118.493 118.531-236.948 237.175c-5.462 6.177-10.811 12.92-15.796 19.94l-0.505 0.748-16.982-22.201-35.325 36.308zM692.198 301.085q92.434-92.056 184.566-184.415c8.623-8.623 9.228-17.398 2.118-24.394-6.392-6.278-14.788-5.181-23.411 3.404q-88.879 88.766-177.758 177.758c-3.555 3.555-8.321 6.656-10.060 10.968-1.139 2.744-1.801 5.931-1.801 9.272 0 2.395 0.34 4.711 0.974 6.901l-0.043-0.175c1.324 3.782 6.808 6.203 11.346 9.985 5.413-2.88 10.069-5.966 14.398-9.441l-0.177 0.137zM814.472 29.531c-1.589-0.412-3.412-0.649-5.291-0.649-3.857 0-7.482 0.997-10.629 2.748l0.112-0.057c-4.48 3.108-8.311 6.746-11.524 10.889l-0.087 0.117-174.732 174.732c-2.141 1.888-4.042 3.957-5.711 6.209l-0.076 0.107c-1.858 2.411-2.979 5.474-2.979 8.799 0 3.935 1.569 7.504 4.116 10.115l-0.003-0.003c2.561 2.982 6.336 4.859 10.549 4.859 3.007 0 5.79-0.956 8.063-2.581l-0.042 0.029c2.469-1.62 4.605-3.455 6.48-5.531l0.026-0.029q91.186-91.11 182.259-182.372c3.457-4.139 6.728-8.736 9.634-13.576l0.275-0.493c-3.593-5.257-6.014-11.724-10.287-13.313zM63.388 779.141c8.668-14.824 21.696-26.29 37.309-32.791l0.512-0.189c12.721-4.571 23.703-10.985 33.253-19.042l-0.16 0.131c36.989-35.438 72.805-72.087 108.962-108.319 34.039-34.039 68.078-68.494 101.398-101.889l49.621 50.34c-2.763 1.866-5.169 3.756-7.433 5.8l0.058-0.052c-56.731 56.731-112.933 114.030-170.534 169.854-25.022 22.615-45.001 50.305-58.383 81.496l-0.58 1.52c-1.593 4.081-4.196 7.475-7.507 9.981l-0.057 0.041q-34.871 24.168-70.385 47.39c-1.218 0.551-2.64 0.872-4.138 0.872-2.060 0-3.977-0.607-5.584-1.653l0.040 0.024c-15.355-14.485-30.257-29.538-45.385-44.666 13.426-20.196 27.080-39.107 39.145-58.849z" />
<glyph unicode="&#xe927;" glyph-name="messages" horiz-adv-x="1160" d="M20.063-33.418v183.919c0 198.684 1.169 397.367-0.545 596.051 1.256 91.239 64.004 167.479 148.613 189.229l1.374 0.3c10.762 2.476 23.121 3.896 35.812 3.896 0.051 0 0.103 0 0.154 0h-0.008q376.174 0.351 752.31 0c97.839-5.207 175.993-82.753 182.137-179.855l0.028-0.558q1.208-251.004 0-502.007c-6.328-88.273-71.203-159.706-155.711-175.972l-1.21-0.194c-15.988-1.968-34.496-3.092-53.266-3.092-5.311 0-10.602 0.090-15.87 0.268l0.766-0.021q-328.373-0.273-656.747-0.312c-8.366-0.094-16.246-2.082-23.26-5.556l0.314 0.141c-67.085-33.075-133.936-66.656-200.865-100.082-3.974-1.558-7.986-3.195-14.025-6.155zM106.276 105.582c37.243 18.622 72.227 36.464 107.64 53.528 7.071 3.47 15.373 5.554 24.147 5.687l0.045 0.001q357.942 0.467 715.884 0.273c2.436-0.229 5.267-0.359 8.129-0.359 50.906 0 92.174 41.268 92.174 92.174 0 2.773-0.122 5.518-0.362 8.229l0.025-0.351v486.97c0.382 3.157 0.6 6.813 0.6 10.52 0 51.078-41.407 92.485-92.485 92.485-3.781 0-7.509-0.227-11.171-0.668l0.442 0.043h-742.804c-3.063 0.359-6.611 0.564-10.207 0.564-51.164 0-92.641-41.477-92.641-92.641 0-3.782 0.227-7.511 0.667-11.174l-0.043 0.442v-387.55zM236.589 681.064v-84.538h687.523v84.538zM236.589 422.619v-84.616h687.523v84.616z" />
<glyph unicode="&#xe928;" glyph-name="metering" d="M511.055-44.308c-271.47 0.56-491.323 220.759-491.323 492.307 0 271.894 220.414 492.308 492.308 492.308s492.308-220.414 492.308-492.308c0-0.152 0-0.304 0-0.456v0.024c-0.134-271.684-220.408-491.876-492.111-491.876-0.415 0-0.83 0.001-1.245 0.002h0.064zM71.601 448.276c0-0.080 0-0.174 0-0.269 0-243.247 197.191-440.438 440.438-440.438s440.438 197.191 440.438 440.438c0 242.375-195.779 439.023-437.823 440.431l-0.134 0.001c-0.714 0.004-1.558 0.007-2.403 0.007-243.168 0-440.318-197.028-440.517-440.15v-0.019zM657.29 816.916c-43.044 17.447-92.97 27.571-145.261 27.571-218.951 0-396.446-177.495-396.446-396.446 0-79.19 23.219-152.958 63.22-214.866l-0.942 1.557c71.334-110.607 193.811-182.876 333.188-183.178h0.045v117.248c-153.655 0.629-277.972 125.335-277.972 279.077 0 139.564 102.446 255.201 236.241 275.812l1.559 0.198c13.051 2.257 28.081 3.547 43.413 3.547 55.157 0 106.415-16.696 148.995-45.311l-0.959 0.607c78.058-49.864 129.1-136.009 129.221-234.084v-0.018h116.657c0 0.166 0 0.362 0 0.557 0 166.325-102.783 308.644-248.297 366.906l-2.662 0.941zM794.309 359.306l-48.404 8.665c-60.416 10.988-120.832 22.055-181.169 32.729-0.719 0.096-1.549 0.151-2.393 0.151-4.004 0-7.719-1.234-10.787-3.343l0.065 0.042c-11.984-9.585-27.362-15.381-44.094-15.381-39.153 0-70.892 31.74-70.892 70.892 0 38.149 30.134 69.261 67.897 70.83l0.142 0.005c1.044 0.056 2.266 0.088 3.496 0.088 31.362 0 57.895-20.675 66.713-49.139l0.132-0.495c1.539-6.030 5.765-10.838 11.294-13.147l0.127-0.047q100.037-47.695 199.838-95.902c2.875-1.378 5.711-2.914 8.586-4.372zM546.186 451.545c0.013 0.352 0.020 0.766 0.020 1.182 0 19.338-15.66 35.019-34.99 35.052h-0.003c-0.177 0.003-0.385 0.005-0.594 0.005-19.564 0-35.455-15.728-35.719-35.229v-0.025c0.26-19.715 16.106-35.644 35.764-36.036l0.037-0.001c19.375 0.152 35.059 15.74 35.367 35.063v0.029z" />
<glyph unicode="&#xe929;" glyph-name="next" d="M512.045 960l512.045-512.045-512.045-512.045z" />
<glyph unicode="&#xe92a;" glyph-name="perfomance" d="M218.153 82.637c-39.591 0.873-71.351 33.173-71.351 72.892 0 40.266 32.642 72.909 72.909 72.909 0.662 0 1.322-0.009 1.98-0.026l-0.097 0.002c0.535-0.066 1.155-0.103 1.784-0.103 5.802 0 10.856 3.199 13.495 7.93l0.040 0.078q57.344 85.484 115.18 170.476c1.977 2.173 3.188 5.074 3.188 8.257 0 2.824-0.952 5.425-2.554 7.5l0.021-0.029c-6.873 10.881-10.952 24.121-10.952 38.315 0 40.040 32.459 72.499 72.499 72.499 4.493 0 8.891-0.409 13.158-1.191l-0.445 0.068c29.238-4.86 52.241-26.856 58.525-55.147l0.089-0.477c1.5-5.587 4.765-10.261 9.15-13.511l0.066-0.047c51.159-31.048 102.646-61.44 154.051-92.16 3.696-1.826 8.048-2.895 12.648-2.895 11.659 0 21.716 6.861 26.353 16.765l0.075 0.178 81.183 227.082c0.973 2.112 1.54 4.582 1.54 7.185 0 3.82-1.222 7.355-3.296 10.234l0.036-0.052c-7.132 11.007-11.372 24.464-11.372 38.911 0 28.167 16.117 52.569 39.632 64.488l0.412 0.189c9.574 4.928 20.892 7.817 32.884 7.817 30.649 0 56.892-18.87 67.743-45.625l0.176-0.49c3.321-8.004 5.25-17.3 5.25-27.047 0-32.884-21.955-60.64-52.007-69.409l-0.511-0.128c-7.62-1.809-13.534-7.627-15.451-15.052l-0.032-0.144q-40.182-111.165-81.101-222.044c-1.183-2.26-1.877-4.936-1.877-7.774 0-4.011 1.386-7.699 3.706-10.61l-0.027 0.035c8.278-11.434 13.241-25.74 13.241-41.206s-4.963-29.771-13.383-41.413l0.142 0.207c-13.425-19.068-35.343-31.373-60.135-31.373-37.49 0-68.407 28.137-72.787 64.446l-0.034 0.351c-1.001 5.264-3.984 9.695-8.127 12.573l-0.065 0.043c-49.807 30.228-99.983 59.843-149.873 89.866-2.321 1.338-5.105 2.127-8.074 2.127-2.495 0-4.86-0.558-6.977-1.555l0.1 0.042c-17.317-6.386-31.060-18.999-38.774-35.057l-0.179-0.414c-38.38-57.344-77.292-114.278-115.548-171.663-2.531-3.961-4.034-8.791-4.034-13.972 0-1.503 0.126-2.976 0.369-4.409l-0.022 0.154c1.055-4.656 1.66-10.003 1.66-15.491 0-40.38-32.734-73.114-73.114-73.114-0.382 0-0.763 0.003-1.144 0.009l0.057-0.001zM218.644 119.173c0.273-0.007 0.594-0.012 0.916-0.012 19.718 0 35.771 15.689 36.356 35.265l0.001 0.054c0.008 0.282 0.012 0.614 0.012 0.947 0 20.148-16.163 36.52-36.23 36.859h-0.032c-20.037-0.196-36.275-16.191-36.863-36.113l-0.001-0.054c0-0.029 0-0.062 0-0.096 0-19.999 15.926-36.279 35.788-36.849l0.053-0.001zM865.485 667.259c0 0.005 0 0.010 0 0.015 0 19.985-15.903 36.256-35.745 36.847l-0.054 0.001c-0.11 0.001-0.239 0.002-0.369 0.002-20.225 0-36.62-16.395-36.62-36.62 0-20.095 16.186-36.41 36.232-36.618h0.020c0 0 0 0 0 0 20.135 0 36.466 16.288 36.536 36.407v0.007zM695.46 338.309c-0.109 0.001-0.238 0.002-0.366 0.002-20.133 0-36.454-16.321-36.454-36.454s16.321-36.454 36.454-36.454c19.989 0 36.22 16.087 36.452 36.021v0.022c0.002 0.147 0.003 0.32 0.003 0.494 0 19.953-16.049 36.158-35.942 36.41h-0.024zM451.133 460.206c-0.129 20.036-16.117 36.296-36.033 36.863l-0.053 0.001c-20.026-0.183-36.296-16.010-37.189-35.841l-0.003-0.081c-0.022-0.478-0.035-1.039-0.035-1.602 0-20.246 16.413-36.659 36.659-36.659s36.659 16.413 36.659 36.659c0 0.232-0.002 0.464-0.006 0.695l0.001-0.035zM37.437 569.938h20.931c18.145 0 26.419 5.734 26.542 18.227s-8.192 18.678-26.051 18.719h-21.545v121.774c10.158 0 19.62-0.287 29.041 0 0.241-0.012 0.524-0.018 0.809-0.018 9.818 0 17.777 7.959 17.777 17.777 0 0.367-0.011 0.731-0.033 1.092l0.002-0.050c0 0.015 0 0.032 0 0.050 0 9.569-7.757 17.326-17.326 17.326-0.461 0-0.918-0.018-1.371-0.053l0.060 0.004c-9.421 0.328-18.883 0-28.959 0v120.668c1.065 0.492 1.802 1.106 2.499 1.147 8.192 0 16.671 0 24.986 0.451 13.148 0.532 20.48 7.168 20.152 18.391s-7.782 17.94-20.48 18.227h-27.853c0 7.291 0.41 13.23 0 19.046-0.45 9.527-8.283 17.080-17.881 17.080-0.021 0-0.042 0-0.063 0h0.003c-0.335 0.023-0.726 0.037-1.12 0.037-9.209 0-16.721-7.271-17.106-16.386l-0.001-0.035c-0.254-3.001-0.399-6.494-0.399-10.021 0-1.489 0.026-2.971 0.077-4.447l-0.006 0.214v-967.721c0-20.029 5.652-25.477 26.706-25.477h971.325c0.9-0.043 1.955-0.068 3.016-0.068 2.284 0 4.542 0.114 6.768 0.336l-0.281-0.023c9.244 0.941 16.396 8.684 16.396 18.098 0 0.233-0.004 0.464-0.013 0.695l0.001-0.033c0.001 0.055 0.001 0.12 0.001 0.185 0 9.221-7.238 16.752-16.343 17.221l-0.042 0.002c-3.075 0.277-6.651 0.434-10.264 0.434-1.403 0-2.801-0.024-4.193-0.071l0.202 0.005h-955.924v122.102c10.199 0 19.661-0.287 29.082 0 0.344-0.024 0.744-0.038 1.149-0.038 9.569 0 17.326 7.757 17.326 17.326 0 0.085-0.001 0.171-0.002 0.256v-0.013c0.019 0.306 0.030 0.663 0.030 1.022 0 9.705-7.867 17.572-17.572 17.572-0.414 0-0.825-0.014-1.232-0.042l0.055 0.003c-9.421 0.328-18.842 0-28.918 0v120.177c0.983 0.737 1.27 1.147 1.556 1.147 8.192 0 16.63 0 24.945 0.492 13.517 0.451 21.34 7.537 21.135 18.924s-7.66 17.572-20.808 17.981c-8.929 0.287-17.9 0-26.624 0v121.897h28.221c0.257-0.013 0.558-0.020 0.861-0.020 9.999 0 18.104 8.106 18.104 18.104s-8.106 18.104-18.104 18.104c-0.303 0-0.604-0.007-0.903-0.022l0.042 0.002c-9.052 0.246-18.145 0-28.303 0z" />
<glyph unicode="&#xe92b;" glyph-name="phone" horiz-adv-x="978" d="M405.049 808.562v-78.734c0.116-1.465 0.181-3.173 0.181-4.896 0-36.54-29.622-66.162-66.162-66.162-1.946 0-3.873 0.084-5.776 0.249l0.247-0.017c-32.939 0-65.82-0.284-98.702 0-0.551 0.080-1.187 0.126-1.834 0.126-6.164 0-11.358-4.154-12.935-9.816l-0.022-0.094c-13.807-34.062-23.39-73.524-26.864-114.725l-0.102-1.499c-3.135-25.234-4.923-54.44-4.923-84.065 0-53.406 5.813-105.454 16.842-155.546l-0.882 4.774c3.698-16.327 10.012-32.028 14.677-48.185 1.402-7.515 7.91-13.128 15.728-13.128 1.036 0 2.050 0.099 3.032 0.287l-0.1-0.016c14.515 0.272 31.63 0.427 48.782 0.427 17.154 0 34.271-0.155 51.351-0.463l-2.569 0.037c1.282 0.089 2.778 0.14 4.286 0.14 36.383 0 65.877-29.494 65.877-65.877 0-1.47-0.048-2.929-0.143-4.375l0.010 0.197q0.455-79.644 0-159.858c0.108-1.421 0.17-3.077 0.17-4.748 0-36.76-29.8-66.56-66.56-66.56-1.802 0-3.586 0.072-5.352 0.212l0.233-0.015c-30.151 0-60.416 1.422-90.453-0.341-2.1-0.124-4.555-0.195-7.027-0.195-40.058 0-75.774 18.591-98.99 47.616l-0.195 0.252c-36 42.214-64.44 92.135-82.455 146.793l-0.887 3.109c-33.988 92.668-53.647 199.669-53.647 311.262 0 29.616 1.385 58.908 4.093 87.816l-0.28-3.7c7.791 110.482 35.881 212.652 80.566 305.316l-2.173-5c18.16 39.575 42.894 73.139 73.147 100.762l0.24 0.216c20.239 18.32 47.211 29.532 76.801 29.532 1.34 0 2.675-0.023 4.004-0.069l-0.193 0.005c32.484-0.853 65.024 0 97.564 0 1.483 0.118 3.212 0.185 4.956 0.185 36.76 0 66.56-29.8 66.56-66.56 0-1.707-0.064-3.398-0.19-5.073l0.013 0.223c0.228-26.567 0.057-53.191 0.057-79.815zM970.524 535.495c-19.767 145.507-84.121 273.263-178.629 371.892l0.226-0.237c-9.062 10.249-22.241 16.678-36.923 16.678-27.177 0-49.209-22.032-49.209-49.209 0-13.86 5.73-26.382 14.951-35.326l0.012-0.012c15.673-16.671 30.75-34.544 44.84-53.206l1.183-1.635c69.859-93.618 111.849-211.598 111.849-339.385 0-152.824-60.056-291.622-157.856-394.079l0.211 0.223c-8.37-8.773-13.52-20.681-13.52-33.792 0-27.057 21.934-48.99 48.99-48.99 13.946 0 26.53 5.827 35.452 15.179l0.018 0.019c114.998 121.451 185.707 285.857 185.707 466.778 0 1.899-0.008 3.796-0.023 5.691l0.002-0.291c-1.877 19.627-3.186 49.835-7.282 79.36zM784.27 543.061c-19.135 94.159-63.592 175.824-125.899 240.080l0.118-0.122c-8.494 10.565-21.418 17.27-35.908 17.27-3.279 0-6.477-0.343-9.562-0.996l0.3 0.053c-18.77-3.542-33.686-17.037-39.213-34.684l-0.097-0.359c-1.255-4.153-1.978-8.926-1.978-13.868 0-14.859 6.533-28.193 16.884-37.284l0.056-0.048c67.164-68.657 108.606-162.714 108.606-266.451 0-47.072-8.533-92.152-24.137-133.775l0.864 2.63c-19.316-55.348-49.279-102.679-87.707-141.639l0.042 0.042c-8.943-8.333-14.518-20.179-14.518-33.327 0-13.365 5.761-25.385 14.936-33.711l0.038-0.034c8.619-10.066 21.34-16.404 35.542-16.404 14.848 0 28.078 6.929 36.633 17.729l0.074 0.097c84.321 89.176 136.161 209.832 136.161 342.596 0 3.196-0.030 6.385-0.090 9.567l0.007-0.477c-2.503 18.318-4.722 50.972-11.15 83.058zM610.645 475.762c-7.43 73.604-40.247 138.402-89.432 186.543l-0.054 0.052c-7.968 8.544-19.29 13.87-31.857 13.87-3.986 0-7.846-0.536-11.513-1.539l0.305 0.071c-22.74-4.455-39.661-24.224-39.661-47.945 0-13.894 5.805-26.433 15.123-35.322l0.019-0.018c37.721-37.255 61.084-88.971 61.084-146.145 0-56.779-23.042-108.176-60.285-145.351l-0.003-0.003c-9.588-8.974-15.562-21.706-15.562-35.834 0-27.083 21.955-49.038 49.038-49.038 14.623 0 27.752 6.401 36.736 16.554l0.045 0.052c54.406 55.073 88.012 130.801 88.012 214.378 0 0.633-0.002 1.265-0.006 1.897v-0.097c-0.398 6.713-0.796 17.294-1.934 27.819z" />
<glyph unicode="&#xe92c;" glyph-name="place" horiz-adv-x="1471" d="M443.563 437.419c-37.319-9.444-74.866-17.92-111.844-28.444-54.511-14.175-102.354-35.423-145.647-63.152l2.003 1.2c-23.886-15.712-44.465-33.796-62.262-54.354l-0.316-0.373c-12.996-14.554-20.939-33.863-20.939-55.027 0-21.935 8.532-41.877 22.459-56.689l-0.040 0.043c24.148-28.555 53.865-51.59 87.568-67.593l1.577-0.674c67.452-33.652 145.711-59.252 228.046-72.738l4.801-0.649c85.89-15.979 184.713-25.118 285.67-25.118 57.109 0 113.534 2.924 169.135 8.631l-6.975-0.58c117.015 8.711 225.55 34.69 326.523 75.466l-7.262-2.591c40.503 15.812 75.392 37.1 105.812 63.417l-0.454-0.384c22.134 17.322 37.603 42.271 42.458 70.836l0.095 0.673c0.188 2.226 0.295 4.819 0.295 7.436 0 27.374-11.703 52.014-30.379 69.19l-0.067 0.061c-34.909 35.622-78.234 62.864-126.764 78.518l-2.203 0.614c-53.476 18.375-108.658 31.972-163.1 47.673l-11.378 3.129c10.126 22.756 19.627 44.373 29.81 65.82 1.965 2.518 5 4.122 8.409 4.122 0.264 0 0.525-0.010 0.784-0.028l-0.035 0.002c123.613-20.022 233.426-67.73 326.647-136.606l-2.039 1.438c22.611-19.116 41.735-41.446 56.898-66.446l0.673-1.195c11.927-18.969 19.002-42.035 19.002-66.752 0-25.504-7.533-49.249-20.495-69.131l0.298 0.488c-19.633-32.387-45.28-59.178-75.612-79.529l-0.904-0.571c-66.217-44.983-143.49-79.899-226.471-100.301l-4.896-1.018c-119.989-32.191-257.748-50.682-399.826-50.682-31.455 0-62.699 0.906-93.706 2.694l4.287-0.197c-128.386 4.497-250.191 24.975-365.931 59.518l10.261-2.629c-72.549 20.473-135.985 49.623-193.593 86.994l2.731-1.66c-35.395 22.051-64.435 51.055-85.879 85.302l-0.649 1.112c-12.763 20.057-20.341 44.497-20.341 70.708 0 25.486 7.165 49.299 19.591 69.533l-0.33-0.579c20.052 33.302 46.386 60.817 77.578 81.622l0.929 0.583c68.312 45.764 147.967 81.298 233.405 102.042l5.073 1.041c19.342 5.291 39.026 9.273 58.425 14.222 1.633 0.806 3.554 1.277 5.586 1.277 5.957 0 10.968-4.052 12.428-9.55l0.020-0.090c9.444-20.764 20.708-40.22 31.061-60.075zM683.804 954.254c-147.706-30.173-257.262-159.047-257.262-313.51 0-18.406 1.556-36.448 4.542-54.002l-0.265 1.887c10.339-54.691 30.377-103.295 58.401-146.209l-0.944 1.54c66.076-105 145.125-194.547 236.408-269.784l1.899-1.519c2.016-2.617 5.151-4.286 8.676-4.286s6.659 1.67 8.657 4.261l0.019 0.026c10.524 9.557 21.788 18.204 32.54 27.477 97.261 76.617 175.532 172.834 229.638 283.061l2.127 4.797c21.157 44.466 33.512 96.627 33.512 151.674 0 25.308-2.612 50.006-7.58 73.839l0.408-2.338c-30.687 140.716-152.596 245.098-299.486 248.597l-0.376 0.007c-16.896-1.65-34.076-2.56-50.916-5.518zM736.028 421.205c-0.389-0.002-0.848-0.004-1.308-0.004-123.256 0-223.175 99.919-223.175 223.175s99.919 223.175 223.175 223.175c123.256 0 223.175-99.919 223.175-223.175 0-0.039 0-0.077 0-0.116v0.006c-0.35-122.622-99.336-222.008-221.772-223.004l-0.095-0.001zM795.932 714.752c-7.99 0.32-14.721 5.384-17.476 12.439l-0.046 0.133c-10.411 22.756-21.788 44.828-32.882 67.186-3.072 6.201-6.485 12.288-10.809 20.366-10.744-18.593-21.913-41.144-31.753-64.394l-1.584-4.214c-6.043-20.404-24.619-35.037-46.614-35.037-1.133 0-2.258 0.039-3.371 0.115l0.15-0.008c-24.007-1.422-47.787-6.656-69.234-9.899 21.845-23.268 43.236-46.706 65.422-69.404 4.328-3.595 7.063-8.977 7.063-14.998 0-1.975-0.294-3.881-0.841-5.677l0.036 0.138c-4.039-17.636-6.542-35.556-9.5-53.419-2.276-13.483-4.267-27.022-6.77-43.065 30.549 15.986 58.368 30.151 85.732 45.511 3.204 2.134 7.143 3.406 11.378 3.406s8.173-1.271 11.454-3.453l-0.076 0.048c27.762-15.303 56.036-29.582 86.471-45.511-5.689 34.133-11.662 65.764-16.213 97.508-0.063 0.683-0.099 1.477-0.099 2.28 0 6.264 2.182 12.018 5.827 16.545l-0.040-0.051c20.992 23.836 42.951 46.82 64.853 70.372-28.388 4.153-59.676 9.33-91.022 13.084z" />
<glyph unicode="&#xe92d;" glyph-name="pod" d="M1020.191 588.247c-4.446-7.122-12.241-11.79-21.126-11.79-4.758 0-9.203 1.339-12.979 3.66l0.108-0.062c-28.672 19.497-57.057 39.322-86.016 58.45q-189.235 125.297-378.593 250.388c-2.378 2.087-5.515 3.36-8.95 3.36s-6.572-1.273-8.965-3.373l0.015 0.013q-227.738-151.224-455.762-302.039c-4.792-3.195-9.175-7.127-14.213-9.83-3.2-1.703-6.997-2.704-11.027-2.704-8.148 0-15.341 4.088-19.64 10.324l-0.052 0.080c-1.907 3.151-3.036 6.957-3.036 11.028 0 8.116 4.488 15.184 11.118 18.858l0.11 0.056 486.236 320.676c4.477 3.496 10.184 5.605 16.384 5.605s11.907-2.11 16.443-5.65l-0.059 0.045q86.016-57.344 172.524-114.688c2.744-1.802 5.612-3.441 10.117-6.185v118.333c0 20.029 7.004 27.116 26.952 27.156h133.734c18.514 0 26.829-8.192 26.829-26.706v-234.783c-0.034-0.37-0.053-0.799-0.053-1.233 0-5.439 3.020-10.172 7.474-12.614l0.075-0.038c34.775-22.61 69.345-45.548 103.916-68.444 12.82-8.438 15.483-17.531 8.438-27.894zM897.311 582.103c-0.538-2.304-0.847-4.949-0.847-7.667 0-0.487 0.010-0.972 0.030-1.454l-0.002 0.069v-607.355c0-23.183-6.431-29.655-29.655-29.655h-710.697c-21.75 0-29.082 7.619-29.082 29.696v608.379c0.074 0.456 0.117 0.981 0.117 1.516s-0.043 1.060-0.124 1.572l0.007-0.056c-7.291 21.094 6.226 29.942 21.422 39.813q171.5 111.37 342.221 224.051c5.644 4.74 12.989 7.619 21.007 7.619 7.836 0 15.030-2.751 20.668-7.339l-0.060 0.047q177.029-116.9 354.836-232.653c7.045-3.132 11.869-10.068 11.869-18.131 0-3.086-0.707-6.007-1.967-8.611l0.052 0.118zM728.924 57.815l-24.576 92.938-18.432-10.486c-25.854-15.421-56.614-25.384-89.506-27.534l-0.606-0.032c-4.025-0.409-8.698-0.642-13.426-0.642-61.544 0-113.854 39.538-132.914 94.6l-0.297 0.988c-3.441 9.216-5.898 18.801-9.175 29.327h241.050v80.937h-249.283v12.943h248.832v82.575h-235.684c3.523 10.035 6.062 19.415 9.994 28.18 16.618 44.025 53.659 76.899 99.251 87.391l0.937 0.182c10.253 2.185 22.034 3.436 34.106 3.436 31.612 0 61.221-8.578 86.625-23.532l-0.801 0.436c6.349-3.482 12.288-7.455 19.251-11.551l9.134 30.433c6.103 20.48 12.042 40.591 18.391 60.785 1.27 4.096 0 5.612-3.195 7.496-31.359 18.216-68.381 30.385-107.89 33.923l-1.023 0.074c-1.804 0.268-3.38 0.625-4.912 1.087l0.243-0.063h-42.23c-11.1-1.802-22.364-3.031-33.3-5.489-72.956-16.258-132.848-62.345-167.278-124.494l-0.658-1.294c-13.816-23.135-24.599-49.987-30.88-78.528l-0.332-1.795c-1.188-5.489-3.441-6.513-8.397-6.431-15.565 0.287-31.089 0-46.653 0h-6.922v-81.92h49.152v-13.353h-48.865v-81.183h54.436c3.277-13.885 5.53-27.238 9.585-40.059 22.79-84.18 86.22-149.709 167.391-175.037l1.774-0.477c12.868-3.552 29.102-6.9 45.642-9.307l2.323-0.277c1.556-0.287 3.113-0.696 4.669-1.065h48.497c11.878 2.007 23.88 3.523 35.635 6.103 34.364 7.719 64.587 21.79 90.785 41.022l-0.673-0.471z" />
<glyph unicode="&#xe92e;" glyph-name="pressure-control" horiz-adv-x="737" d="M369.607 960c202.768-0.842 366.817-165.411 366.817-368.296 0-203.406-164.893-368.299-368.299-368.299-202.885 0-367.454 164.049-368.295 366.737v0.080c-0.001 0.305-0.001 0.665-0.001 1.025 0 203.657 165.097 368.754 368.754 368.754 0.361 0 0.721-0.001 1.082-0.002h-0.056zM651.036 591.189c0 0.149 0 0.326 0 0.502 0 156.089-126.535 282.624-282.624 282.624s-282.624-126.535-282.624-282.624c0-156.089 126.535-282.624 282.624-282.624 0.84 0 1.679 0.004 2.517 0.011l-0.128-0.001c154.921 1.256 280.046 127.040 280.235 282.094v0.018zM425.188 142.108l4.779-3.072c6.258 5.689 17.067 10.354 17.863 16.668 0.903 9.249 1.418 19.993 1.418 30.858 0 6.856-0.205 13.664-0.61 20.418l0.044-0.929c-27.25-2.105-53.532-5.689-79.644-5.689s-53.248 3.527-80.156 5.689c-0.295-0.525-0.481-1.148-0.512-1.811v-35.963c0-22.414 0-22.414 23.268-26.795v-205.426h113.778zM202.24 672.484c5.689-1.991 9.557-3.129 13.141-4.437 34.532-12.8 69.006-25.998 103.765-38.116 1.731-0.484 3.719-0.762 5.771-0.762 4.329 0 8.369 1.237 11.787 3.376l-0.093-0.054c8.6 6.773 19.589 10.863 31.533 10.863 24.447 0 44.892-17.134 49.982-40.048l0.064-0.341c1.029-7.564 6.621-13.579 13.874-15.223l0.121-0.023c10.98-3.3 21.618-7.68 32.313-11.89 5.545-1.107 9.666-5.936 9.666-11.727 0-2.383-0.698-4.604-1.9-6.468l0.028 0.047c-2.219-4.779-4.21-9.671-5.689-14.62-3.584-10.012-10.581-11.378-19.513-7.851-3.527 1.422-6.884 3.3-10.411 4.892-8.192 5.97-18.458 9.551-29.56 9.551-8.286 0-16.106-1.995-23.006-5.531l0.285 0.133c-5.563-2.47-12.054-3.908-18.879-3.908-24.657 0-44.932 18.764-47.323 42.793l-0.016 0.198c-0.753 8.565-6.606 15.586-14.473 18.051l-0.147 0.040c-34.133 15.303-68.267 30.834-101.604 47.161-4.55 3.233-7.618 8.295-8.13 14.092l-0.005 0.073c-0.455 3.186 5.746 6.884 8.42 9.728zM391.623 591.701c-0.038 12.79-10.415 23.144-23.211 23.144-12.819 0-23.211-10.392-23.211-23.211 0-12.579 10.006-22.821 22.493-23.2l0.035-0.001c0.221-0.008 0.48-0.012 0.74-0.012 12.819 0 23.211 10.392 23.211 23.211 0 0.044 0 0.088 0 0.132v-0.007zM450.617 761.515c1.65 4.267-3.356 11.036-5.291 16.668-4.949-2.617-12.629-4.039-14.393-8.078-15.132-34.532-29.241-69.518-43.918-105.074l20.594-8.476c14.564 35.954 29.355 70.201 43.008 104.96zM260.551 779.548c0.002 0.094 0.003 0.205 0.003 0.316 0 8.515-6.902 15.417-15.417 15.417-0.582 0-1.157-0.032-1.723-0.095l0.070 0.006c-10.354-0.398-17.92-7.168-15.588-17.692 1.479-6.713 8.476-12.231 11.378-16.441 15.588 1.707 21.447 8.078 20.992 18.489zM512.455 781.938c-6.144 4.494-11.833 11.89-18.546 12.914-0.701 0.117-1.509 0.184-2.332 0.184-8.2 0-14.848-6.648-14.848-14.848 0-0.647 0.041-1.283 0.121-1.908l-0.008 0.074c0-10.411 6.827-18.091 17.067-15.986 6.713 1.365 12.288 8.42 18.318 12.914zM181.874 732.388c-10.695 1.707-17.067-6.258-16.612-16.612-0.008-0.187-0.013-0.406-0.013-0.626 0-8.483 6.877-15.36 15.36-15.36 0.465 0 0.925 0.021 1.38 0.061l-0.059-0.004c10.468 0 16.441 6.428 17.067 22.13-4.38 2.788-10.581 9.444-17.351 10.411zM555.748 699.847c0.296-0.020 0.641-0.032 0.989-0.032 8.515 0 15.417 6.902 15.417 15.417 0 0.291-0.008 0.581-0.024 0.868l0.002-0.040c0 10.411-6.315 18.204-17.067 16.384-6.827-1.195-12.686-7.908-17.067-10.866 1.024-15.474 6.997-21.788 17.522-21.732zM201.159 469.959c-6.087 4.608-11.662 12.004-18.375 13.255-0.841 0.169-1.808 0.266-2.797 0.266-8.2 0-14.848-6.648-14.848-14.848 0-0.494 0.024-0.983 0.071-1.465l-0.005 0.061c0-10.411 6.485-18.148 17.067-16.213 6.827 1.252 12.572 7.964 18.83 12.288zM572.188 467.115c0.020 0.295 0.031 0.639 0.031 0.986 0 8.546-6.928 15.474-15.474 15.474-0.271 0-0.541-0.007-0.809-0.021l0.038 0.002c-10.411 0-18.375-6.030-16.725-16.668 1.081-6.77 7.908-12.629 10.752-17.067 15.474 0.853 21.902 6.77 21.959 17.237zM244.167 388.267c0.28-0.018 0.606-0.028 0.935-0.028 8.515 0 15.417 6.902 15.417 15.417 0 0.31-0.009 0.618-0.027 0.924l0.002-0.042c0 10.411-6.201 18.318-16.782 16.612-6.77-1.081-12.572-8.021-16.725-10.866 0.512-15.758 6.485-22.073 16.953-22.073zM489.529 424.107c-4.324-6.315-11.378-12.231-12.288-19.058-0.129-0.733-0.202-1.578-0.202-2.439 0-8.169 6.622-14.791 14.791-14.791 0.774 0 1.534 0.059 2.276 0.174l-0.083-0.011c0.418-0.043 0.902-0.067 1.393-0.067 7.98 0 14.45 6.469 14.45 14.45 0 1.236-0.155 2.436-0.447 3.581l0.022-0.1c-1.536 6.713-8.647 12.174-13.255 18.148zM341.618 812.316c0.022 0.303 0.034 0.656 0.034 1.013 0 8.357-6.775 15.132-15.132 15.132-0.412 0-0.821-0.016-1.225-0.049l0.053 0.003c-10.752 0-18.261-6.030-16.498-16.555 1.081-6.77 7.908-12.572 10.809-17.067 15.303 1.081 21.788 6.997 21.732 17.408zM431.616 815.161c-6.087 4.494-11.378 11.378-18.318 12.857-0.351 0.027-0.761 0.043-1.174 0.043-8.829 0-15.986-7.157-15.986-15.986s7.157-15.986 15.986-15.986c0.233 0 0.465 0.005 0.695 0.015l-0.033-0.001c6.77 1.195 12.516 7.964 18.716 12.231q-0.171 3.3-0.114 6.713zM129.422 632.206c6.087-4.551 11.776-11.89 18.432-12.971 0.797-0.155 1.713-0.243 2.65-0.243 8.043 0 14.564 6.52 14.564 14.564 0 0.728-0.053 1.444-0.157 2.143l0.010-0.079c0 10.752-6.656 17.977-17.067 15.986-6.656-1.308-12.288-8.306-18.375-12.743zM588.743 652.117c-0.385 0.035-0.834 0.055-1.286 0.055-8.295 0-15.019-6.724-15.019-15.019 0-0.36 0.013-0.716 0.038-1.070l-0.003 0.048c-0.14-0.761-0.22-1.637-0.22-2.532 0-8.106 6.571-14.677 14.677-14.677 0.72 0 1.427 0.052 2.119 0.152l-0.079-0.009c6.656 0.796 12.572 8.021 17.067 11.036-1.365 15.36-6.599 21.675-17.465 21.675zM148.025 564.679c-0.267 0.017-0.579 0.026-0.894 0.026-8.42 0-15.246-6.826-15.246-15.246 0-0.39 0.015-0.776 0.043-1.158l-0.003 0.051c0-10.752 6.144-18.204 16.612-16.441 6.713 1.138 12.516 7.964 16.612 10.752-0.91 15.644-6.827 22.073-17.294 21.959zM588.629 564.679c-8.999-0.225-16.208-7.574-16.208-16.607 0-8.712 6.707-15.858 15.239-16.556l0.059-0.004c0.65-0.096 1.4-0.151 2.163-0.151 8.609 0 15.588 6.979 15.588 15.588 0 0.073-0.001 0.146-0.002 0.219v-0.011c0.055 0.493 0.086 1.065 0.086 1.645 0 8.734-7.081 15.815-15.815 15.815-0.451 0-0.897-0.019-1.338-0.056l0.058 0.004z" />
<glyph unicode="&#xe92f;" glyph-name="previous" d="M512 960l-512-512 512-512z" />
<glyph unicode="&#xe930;" glyph-name="profile" horiz-adv-x="987" d="M319.524 474.608c-56.41 49.319-91.843 121.416-91.843 201.789 0 8.44 0.391 16.788 1.155 25.028l-0.079-1.056c14.553 134.447 127.435 238.183 264.545 238.183 68.322 0 130.628-25.758 177.737-68.093l-0.245 0.216c53.856-48.579 87.56-118.61 87.56-196.512 0-79.68-35.26-151.125-91.029-199.583l-0.324-0.275c7.927-3.565 15.589-6.789 23.099-10.355 131.726-60.476 230.33-173.863 269.641-312.202l0.839-3.452c4.381-13.383 6.908-28.784 6.908-44.775 0-82.054-66.518-148.572-148.572-148.572-1.856 0-3.703 0.034-5.542 0.101l0.266-0.008c-87.96-0.341-175.882 0-263.842 0h-379.719c-0.953-0.022-2.077-0.035-3.203-0.035-72.229 0-132.368 51.767-145.338 120.224l-0.145 0.922c-1.539 8.703-2.418 18.723-2.418 28.948 0 24.285 4.961 47.411 13.926 68.42l-0.432-1.139c46.634 134.994 146.098 241.338 273.033 296.101l3.213 1.233zM492.295 17.36v0c108.897 0 217.833 1.328 326.73-0.569 47.94 1.253 86.324 40.413 86.324 88.538 0 6.826-0.772 13.471-2.234 19.854l0.115-0.595c-38.225 153.44-157.645 271.608-308.915 307.427l-2.833 0.566c-16.917 4.476-26.551 13.238-27.992 27.044-0.213 1.373-0.335 2.957-0.335 4.57 0 13.569 8.615 25.126 20.674 29.498l0.218 0.069c67.772 33.343 113.587 101.901 113.587 181.159 0 18.976-2.626 37.338-7.535 54.743l0.342-1.418c-24.151 87.602-103.119 150.875-196.865 150.875-112.597 0-203.875-91.278-203.875-203.875 0-8.552 0.527-16.98 1.549-25.255l-0.1 0.991c6.775-70.102 50.113-128.699 110.482-156.987l1.184-0.499c11.968-4.499 20.329-15.848 20.329-29.151 0-1.869-0.165-3.699-0.481-5.478l0.028 0.188c-1.821-13.465-11-21.962-27.461-26.286-152.999-36.132-271.847-152.643-310.76-301.479l-0.646-2.911c-1.751-6.62-2.756-14.22-2.756-22.055 0-48.883 39.132-88.625 87.779-89.61l0.092-0.001c107.722 2.428 215.595 0.607 323.392 0.607z" />
<glyph unicode="&#xe931;" glyph-name="pump" horiz-adv-x="963" d="M792.86 645.689c-5.063 0-8.704 0.569-12.345 0.569h-204.060c-8.875 0-12.117-1.991-12.117-11.378q0.455-258.958 0-517.689c0-3.243 0.341-6.542 0.626-11.378h47.616c25.941 0 37.262-11.378 37.319-37.035v-96.711c0.219-1.395 0.344-3.003 0.344-4.641 0-17.375-14.085-31.46-31.46-31.46-1.425 0-2.828 0.095-4.203 0.278l0.161-0.018h-412.558c-1.080-0.132-2.33-0.208-3.598-0.208-17.249 0-31.232 13.983-31.232 31.232 0 1.518 0.108 3.011 0.318 4.471l-0.020-0.167v98.702c-0.166 1.216-0.26 2.621-0.26 4.048 0 17.469 14.161 31.63 31.63 31.63 1.516 0 3.008-0.107 4.467-0.313l-0.168 0.019q23.268 0 46.535 0.455c0.626 0 1.252 0.626 2.617 1.365v623.9h-220.615c-23.666 0-31.915 8.192-32.028 31.972v19.968c0 24.747 7.737 32.654 32.199 32.654h221.184v24.064c-0.132 1.885-0.207 4.085-0.207 6.303 0 36.532 20.436 68.29 50.499 84.468l0.511 0.251c29.817 18.265 65.912 29.082 104.533 29.082s74.717-10.817 105.421-29.586l-0.888 0.504c30.816-16.584 51.41-48.609 51.41-85.445 0-2.243-0.076-4.467-0.227-6.672l0.016 0.298c-0.455-23.723 0-23.723 23.95-23.666 102.002 0 204.060-0.796 306.062 0.455 0.893 0.044 1.939 0.068 2.991 0.068 36.1 0 65.365-29.265 65.365-65.365 0-1.205-0.033-2.402-0.097-3.591l0.007 0.166c-1.024-49.152 0-98.304 0-147.513 0-27.705-11.378-38.741-39.253-38.798h-92.046c-27.364 0-38.571 11.378-38.628 38.116 0.228 15.076 0.228 30.208 0.228 46.592zM809.927 384c-10.354-23.042-16.588-49.9-17.064-78.161l-0.002-0.175c0-0.083 0-0.181 0-0.279 0-46.846 37.976-84.821 84.821-84.821 38.286 0 70.647 25.366 81.195 60.209l0.156 0.601c2.381 9.017 3.748 19.368 3.748 30.039 0 12.684-1.932 24.916-5.517 36.42l0.233-0.866c-19.001 59.528-45.913 111.273-80.088 157.303l1.013-1.427c-25.082-34.384-47.889-73.454-66.579-114.784l-1.688-4.171z" />
</font>
</defs>
</svg>
